<?xml version="1.0" encoding="UTF-8"?> <svg xmlns="http://www.w3.org/2000/svg" width="512" height="512" viewBox="0 0 512 512" fill="none"> <g clip-path="url(#clip0)"> <path d="M236.606 269.187C230.981 274.812 221.02 274.812 215.395 269.187L192.353 246.146L171.143 267.356L226 322.214L340.857 207.357L319.632 186.146L236.606 269.187Z" fill="white"></path> <path d="M487.984 153.217C487.208 152.485 470.801 137.206 450.324 126.162C447.951 103.003 440.114 81.9971 439.733 81.0011C438.21 76.9732 435.031 73.7942 431.003 72.2713C430.007 71.8903 409.001 64.0534 385.843 61.6804C374.798 41.1877 359.505 24.7819 358.787 24.0049C355.828 20.856 351.668 18.629 347.361 19.288C346.306 19.317 323.894 20.108 301.586 26.7879C283.539 12.0821 263.148 1.78023 262.181 1.34023C258.255 -0.446744 253.743 -0.446744 249.818 1.34023C248.851 1.77923 228.462 12.0811 210.415 26.7879C188.105 20.108 165.694 19.317 164.64 19.288C160.128 18.658 156.173 20.855 153.214 24.0049C152.496 24.7809 137.203 41.1877 126.158 61.6804C102.999 64.0534 81.9937 71.8903 80.9977 72.2713C76.9698 73.7942 73.7908 76.9732 72.2678 81.0011C71.8868 81.9971 64.0499 103.003 61.677 126.162C41.1843 137.206 24.7785 152.499 24.0015 153.217C20.8665 156.176 19.1386 160.336 19.2845 164.643C19.3135 165.698 20.1045 188.11 26.7844 210.418C12.0776 228.465 1.77579 248.856 1.33679 249.822C-0.435181 253.748 -0.435181 258.26 1.33679 262.185C1.77579 263.152 12.0776 283.541 26.7844 301.588C20.1045 323.898 19.3135 346.31 19.2845 347.364C19.1386 351.67 20.8665 355.83 24.0015 358.789C24.7775 359.507 41.1843 374.8 61.677 385.845C64.0499 409.004 71.8868 430.009 72.2678 431.005C73.7908 435.033 76.9698 438.212 81.0127 439.735C82.0087 440.116 102.999 447.953 126.158 450.326C137.203 470.805 152.481 487.211 153.214 487.987C156.158 491.136 160.392 493.114 164.64 492.718C165.695 492.689 188.106 491.898 210.401 485.218C228.463 499.909 248.852 510.226 249.819 510.665C251.782 511.559 253.891 511.998 256.001 511.998C258.111 511.998 260.22 511.559 262.183 510.665C263.15 510.226 283.54 499.909 301.587 485.218C323.896 491.898 346.308 492.689 347.362 492.718C351.815 493.084 355.829 491.136 358.788 487.987C359.52 487.211 374.799 470.804 385.844 450.326C409.002 447.953 429.993 440.116 430.989 439.735C435.032 438.212 438.211 435.033 439.734 431.005C440.115 430.009 447.952 409.004 450.325 385.845C470.803 374.8 487.209 359.522 487.985 358.789C491.134 355.845 492.863 351.685 492.716 347.364C492.687 346.309 491.896 323.897 485.216 301.588C499.923 283.541 510.225 263.151 510.664 262.185C512.436 258.259 512.436 253.747 510.664 249.822C510.225 248.855 499.923 228.465 485.216 210.418C491.896 188.109 492.687 165.697 492.716 164.643C492.862 160.322 491.133 156.162 487.984 153.217V153.217ZM372.673 217.962L236.606 354.03C233.676 356.96 229.838 358.425 226.001 358.425C222.164 358.425 218.325 356.96 215.396 354.03L139.328 277.962C133.469 272.104 133.469 262.611 139.328 256.752L181.749 214.33C187.608 208.471 197.101 208.471 202.96 214.33L226.002 237.372L309.028 154.331C314.887 148.472 324.379 148.472 330.238 154.331L372.675 196.753C378.533 202.611 378.529 212.107 372.673 217.962V217.962Z" fill="white"></path> </g> <defs> <clipPath id="clip0"> <rect width="512" height="512" fill="white"></rect> </clipPath> </defs> </svg> 