<?xml version="1.0" encoding="UTF-8"?> <svg xmlns="http://www.w3.org/2000/svg" id="Layer_1" height="512" viewBox="0 0 512 512" width="512" data-name="Layer 1"> <path d="m84.212 454.1a5.436 5.436 0 1 0 5.436-5.436 5.442 5.442 0 0 0 -5.436 5.436z"></path> <path d="m35 358 32.31 116h63.69l-36-116zm70.084 96.1a15.436 15.436 0 1 1 -15.436-15.436 15.453 15.453 0 0 1 15.436 15.436z"></path> <path d="m307 38h-127.123l-30.878 62h158.001z"></path> <path d="m272 110h83v45h-83z"></path> <path d="m214.009 349.421a5.4 5.4 0 0 1 -.212-5.072l23.626-47a16.33 16.33 0 0 0 -5.536-20.84l-.4-.238a15.586 15.586 0 0 0 -20.855 3.152l-23.768 29.257a38.378 38.378 0 0 1 -29.687 14.32h-1.877a28.165 28.165 0 0 0 -28.324 28.1 4.536 4.536 0 0 1 -1.675 3.511 47.287 47.287 0 0 1 -18.081 10.016l21.582 69.438 29.762-18.808c.076-.048.152-.081.231-.124a29.084 29.084 0 0 1 21.145-2.869l54.975 8.551a54.93 54.93 0 0 0 37.994-7.888l95.791-60.927h-150.435a5.2 5.2 0 0 1 -4.256-2.579z"></path> <path d="m346.441 287.16a4.662 4.662 0 0 1 -3.431 1.558 4.954 4.954 0 0 1 -3.634-1.5l-11.191-11.4-11.047 11.382a5.006 5.006 0 0 1 -7.182 0l-11.044-11.378-11.183 11.4a5.2 5.2 0 0 1 -3.618 1.5 4.828 4.828 0 0 1 -3.508-1.558l-5.6-5.969v60.805h77v-60.809z"></path> <path d="m365 159.784a4.951 4.951 0 0 1 -4.71 5.216h-93.49a5.022 5.022 0 0 1 -4.8-5.216v-49.784h-116v203.71a37.817 37.817 0 0 1 9.3-.71h1.874a28.407 28.407 0 0 0 21.938-10.628l23.77-29.355a25.527 25.527 0 0 1 34.185-5.048l.4.318a26.5 26.5 0 0 1 8.89 33.748c-6.495 12.917-15.157 29.965-19.984 39.965h38.627v-73.338a4.913 4.913 0 0 1 3.083-4.622 4.978 4.978 0 0 1 5.462 1.222l10.7 11.34 11.128-11.272a4.825 4.825 0 0 1 3.558-1.33h.014a4.831 4.831 0 0 1 3.573 1.349l11.02 11.189 11.022-11.358a4.986 4.986 0 0 1 3.568-1.518 4.837 4.837 0 0 1 3.57 1.5l11.116 11.357 10.676-11.3a4.983 4.983 0 0 1 5.471-1.2 4.9 4.9 0 0 1 3.039 4.643v73.338h115v-232h-112zm-184 71.274a5 5 0 0 1 -10 0v-66a5 5 0 0 1 10 0zm0-85a5 5 0 0 1 -10 0v-6.3a5 5 0 0 1 10 0z"></path> <path d="m443.16 38h-126.16v62h157.039z"></path> </svg> 