<?xml version="1.0" encoding="UTF-8"?> <svg xmlns="http://www.w3.org/2000/svg" width="367" height="44" viewBox="0 0 367 44" fill="none"> <g clip-path="url(#clip0)"> <path d="M21.64 0C25.92 0 30.1039 1.26916 33.6625 3.647C37.2212 6.02483 39.9949 9.40454 41.6328 13.3587C43.2706 17.3129 43.6992 21.664 42.8642 25.8618C42.0292 30.0595 39.9682 33.9154 36.9418 36.9418C33.9154 39.9682 30.0595 42.0292 25.8618 42.8642C21.664 43.6992 17.3129 43.2706 13.3587 41.6328C9.40454 39.9949 6.02483 37.2212 3.647 33.6625C1.26916 30.1039 0 25.92 0 21.64C0 15.9007 2.27992 10.3965 6.33821 6.33821C10.3965 2.27992 15.9007 0 21.64 0V0Z" fill="#4D6AAF"></path> <path fill-rule="evenodd" clip-rule="evenodd" d="M21.6403 0.820312C25.7581 0.820312 29.7835 2.04138 33.2073 4.32912C36.6311 6.61685 39.2997 9.86849 40.8755 13.6728C42.4513 17.4772 42.8636 21.6634 42.0603 25.7021C41.2569 29.7408 39.274 33.4505 36.3623 36.3623C33.4505 39.274 29.7408 41.2569 25.7021 42.0603C21.6634 42.8636 17.4772 42.4513 13.6728 40.8755C9.86849 39.2997 6.61685 36.6311 4.32912 33.2073C2.04138 29.7835 0.820313 25.7581 0.820312 21.6403C0.822962 16.1193 3.01734 10.8252 6.92128 6.92128C10.8252 3.01734 16.1193 0.822962 21.6403 0.820312V0.820312Z" fill="white"></path> <path d="M61.001 21.1996C59.581 22.0296 58.001 21.7596 56.391 21.6996L54.821 21.7496C54.7285 21.7514 54.6366 21.7344 54.551 21.6996C54.5038 21.6776 54.4644 21.6421 54.4376 21.5976C54.4109 21.553 54.3981 21.5014 54.401 21.4496C54.4106 21.3824 54.4444 21.3211 54.4959 21.2769C54.5474 21.2328 54.6131 21.2089 54.681 21.2096C54.795 21.2391 54.9152 21.2351 55.027 21.1978C55.1388 21.1605 55.2375 21.0917 55.311 20.9996V20.9996C55.5064 20.4555 55.5781 19.8748 55.521 19.2996V19.2996C55.521 18.9496 55.521 18.5796 55.521 18.1796C55.521 17.7796 55.521 17.3896 55.521 16.8996V14.0496V11.6296C55.521 11.3196 55.521 10.9996 55.521 10.6296C55.521 10.2596 55.461 9.83955 55.031 9.74955C54.601 9.65955 54.391 9.74955 54.221 9.63955C54.1864 9.61142 54.1596 9.57485 54.1432 9.53337C54.1268 9.49189 54.1214 9.44689 54.1274 9.4027C54.1334 9.35851 54.1507 9.31661 54.1776 9.28104C54.2045 9.24546 54.2401 9.2174 54.281 9.19955C54.3666 9.1647 54.4585 9.14769 54.551 9.14955L56.361 9.19955H56.741H57.321H57.501H58.111C58.6442 9.18932 59.1752 9.2705 59.681 9.43955C60.116 9.58489 60.5102 9.83169 60.831 10.1596V10.1596C61.2515 10.611 61.4999 11.1958 61.5328 11.8119C61.5657 12.4279 61.381 13.0359 61.011 13.5296V13.5296C60.7483 13.9225 60.4504 14.2906 60.121 14.6296C60.816 14.8 61.4435 15.176 61.9217 15.7085C62.3998 16.2409 62.7064 16.9052 62.8014 17.6145C62.8964 18.3238 62.7755 19.0452 62.4543 19.6848C62.1331 20.3243 61.6266 20.8522 61.001 21.1996V21.1996ZM57.271 10.0496H57.201V14.3996H57.551C57.7442 14.4094 57.9378 14.4094 58.131 14.3996H58.801C58.9893 14.3748 59.1692 14.3057 59.3256 14.198C59.4821 14.0902 59.6107 13.9468 59.701 13.7796C60.0457 13.1655 60.1526 12.4461 60.0014 11.7584C59.8502 11.0706 59.4514 10.4624 58.881 10.0496C58.3678 9.84761 57.8034 9.81605 57.271 9.95955V10.0496ZM59.661 15.6896L59.541 15.6196C59.3402 15.4906 59.121 15.3928 58.891 15.3296C58.6006 15.253 58.3012 15.216 58.001 15.2196H57.441H57.201C57.201 16.7596 57.141 18.3396 57.201 19.8796C57.2029 20.0248 57.2231 20.1693 57.261 20.3096V20.3096C57.2875 20.3829 57.3322 20.4483 57.391 20.4996V20.4996C57.7355 20.7212 58.1236 20.8663 58.529 20.925C58.9344 20.9836 59.3478 20.9545 59.741 20.8396C59.9978 20.7645 60.2362 20.6368 60.4411 20.4646C60.6459 20.2925 60.8128 20.0796 60.931 19.8396C61.1882 19.0962 61.2018 18.2901 60.9699 17.5385C60.7379 16.7868 60.2724 16.1287 59.641 15.6596L59.661 15.6896Z" fill="#4D6AAF"></path> <path d="M80.2003 21.7502H79.0003H78.2003L76.6203 21.8002C76.5279 21.8021 76.436 21.785 76.3503 21.7502C76.3063 21.7297 76.269 21.6973 76.2425 21.6566C76.216 21.616 76.2014 21.5687 76.2003 21.5202C76.2003 21.2002 76.6803 21.2402 76.9403 21.2102C77.2303 21.0902 77.2603 20.7202 77.2903 20.4502C77.2903 20.3202 77.2903 20.1402 77.2903 19.9202C77.2903 19.2102 77.2903 18.4802 77.2903 17.7602V16.9002V14.0502V12.1402V10.5502C77.2961 10.3662 77.2548 10.1837 77.1703 10.0202C77.0257 9.86105 76.8249 9.76425 76.6103 9.7502H76.4603C76.2903 9.7502 76.0803 9.7502 76.0803 9.5002C76.0803 9.2502 76.2103 9.2202 76.4903 9.2202L78.1203 9.2702L79.8003 9.2002C80.0703 9.2002 80.2103 9.3002 80.2103 9.4802C80.2091 9.51524 80.2007 9.54967 80.1859 9.58142C80.171 9.61316 80.1498 9.64157 80.1236 9.66492C80.0975 9.68828 80.0669 9.7061 80.0336 9.71732C80.0004 9.72853 79.9653 9.73291 79.9303 9.7302C79.3303 9.8002 79.0403 9.8902 79.0403 10.5502V16.9002V17.7202C79.0403 18.5802 79.0403 19.4602 79.1103 20.3202C79.11 20.5677 79.1793 20.8102 79.3103 21.0202C79.5303 21.2402 80.0403 21.1902 80.3103 21.2202C80.364 21.2212 80.4165 21.2365 80.4622 21.2646C80.5079 21.2928 80.5453 21.3327 80.5703 21.3802C80.6803 21.7402 80.1803 21.7502 80.1803 21.7502H80.2003ZM74.0603 20.6402C72.5403 22.1102 70.5803 21.7802 68.6903 21.7002L67.1103 21.7502C67.0211 21.7521 66.9325 21.7351 66.8503 21.7002C66.8056 21.6807 66.7676 21.6485 66.7409 21.6076C66.7143 21.5668 66.7001 21.519 66.7003 21.4702C66.7003 21.0902 67.3603 21.2702 67.5503 21.1002C67.8203 20.8602 67.8203 20.1002 67.8303 19.8702C67.8403 19.6402 67.8303 19.3702 67.8303 19.0502C67.8303 17.3802 67.8303 15.7202 67.8303 14.0502V10.5502C67.8464 10.4475 67.8464 10.3429 67.8303 10.2402C67.8063 10.1511 67.7618 10.0689 67.7003 10.0002L67.6203 9.9102C67.5692 9.85563 67.5031 9.81737 67.4303 9.8002H67.2503H67.1003H66.9603C66.7803 9.8002 66.5703 9.8002 66.5703 9.5502C66.5703 9.3002 66.7103 9.2702 66.9803 9.2702C67.5303 9.2702 68.0703 9.3402 68.6103 9.3202L70.1903 9.2702C70.4603 9.2702 70.6003 9.3702 70.6003 9.5502C70.6003 9.7302 70.5103 9.8002 70.3203 9.8002H69.9403C69.8697 9.80979 69.8019 9.83439 69.7415 9.87233C69.6811 9.91027 69.6296 9.96069 69.5903 10.0202C69.4985 10.1883 69.4568 10.3792 69.4703 10.5702V14.4302C69.9507 14.5262 70.4418 14.5564 70.9303 14.5202C73.1803 14.5202 75.2103 15.8502 75.2103 18.1102C75.1781 19.0765 74.7689 19.9918 74.0703 20.6602L74.0603 20.6402ZM73.4303 18.8302C73.4369 18.3528 73.3556 17.8782 73.1903 17.4302V17.4302C73.0772 17.1207 72.9224 16.828 72.7303 16.5602V16.5602C72.4751 16.1808 72.132 15.8686 71.7303 15.6502C71.2764 15.4392 70.7808 15.3332 70.2803 15.3402V15.3402C69.5803 15.3402 69.5503 15.5202 69.5503 16.1302V19.6302C69.5347 19.8988 69.5582 20.1683 69.6203 20.4302C69.6444 20.4938 69.686 20.5493 69.7403 20.5902V20.5902C69.8219 20.6592 69.9128 20.7165 70.0103 20.7602C70.2203 20.8505 70.4429 20.9078 70.6703 20.9302H70.8903C71.2044 21.0001 71.5303 20.9976 71.8433 20.9229C72.1563 20.8481 72.4482 20.7031 72.6968 20.4988C72.9455 20.2945 73.1443 20.0363 73.2783 19.7437C73.4123 19.4511 73.478 19.1319 73.4703 18.8102L73.4303 18.8302Z" fill="#4D6AAF"></path> <path d="M94.581 20.25C94.5472 20.48 94.4971 20.7072 94.431 20.93C94.4002 21.0949 94.3355 21.2515 94.241 21.39V21.39L93.991 21.53H93.861L93.721 21.58C93.3919 21.6616 93.0578 21.7217 92.721 21.76L91.881 21.84H91.061C90.0462 21.9058 89.0285 21.771 88.0659 21.4432C87.1033 21.1155 86.2148 20.6013 85.451 19.93C84.8261 19.3044 84.3388 18.5552 84.0202 17.7304C83.7016 16.9055 83.5588 16.0233 83.601 15.14V15.14C83.5712 14.4186 83.6522 13.6969 83.841 13C84.1101 12.3141 84.5034 11.6836 85.001 11.14C85.346 10.7536 85.7431 10.417 86.181 10.14C87.4382 9.35495 88.8993 8.95838 90.381 9.00005H91.381C91.711 9.00005 92.041 9.06005 92.381 9.11005L93.381 9.26005L94.381 9.40005C94.4672 9.40204 94.5508 9.42992 94.621 9.48005C94.6572 9.51055 94.6859 9.54894 94.705 9.59228C94.724 9.63562 94.7329 9.68274 94.731 9.73005V9.73005V10.18V10.64C94.731 10.76 94.731 10.87 94.731 10.99C94.731 11.11 94.731 11.38 94.731 11.61C94.7472 11.8831 94.7472 12.157 94.731 12.43C94.7229 12.5074 94.6991 12.5823 94.661 12.65C94.641 12.6887 94.611 12.7212 94.574 12.7441C94.537 12.767 94.4945 12.7794 94.451 12.78C94.3977 12.7813 94.3457 12.7641 94.3037 12.7312C94.2618 12.6984 94.2325 12.652 94.221 12.6V12.6C94.2016 12.501 94.2016 12.3991 94.221 12.3C94.2352 11.9134 94.1369 11.531 93.9381 11.1991C93.7393 10.8671 93.4485 10.6 93.101 10.43V10.43L92.811 10.28L92.491 10.16C91.844 9.9574 91.1688 9.8595 90.491 9.87005C89.6662 9.84835 88.8449 9.9841 88.071 10.27C87.6081 10.4494 87.1852 10.7184 86.8265 11.0616C86.4678 11.4048 86.1805 11.8155 85.981 12.27C85.6104 13.1873 85.4334 14.1712 85.461 15.16C85.4493 16.6478 86.0158 18.0819 87.041 19.16C87.559 19.7216 88.1893 20.1679 88.891 20.47C89.6099 20.7692 90.3823 20.9189 91.161 20.91C91.7187 20.9241 92.2761 20.8704 92.821 20.75L92.991 20.7L93.151 20.64C93.4174 20.5202 93.6584 20.3505 93.861 20.14V20.14C94.1564 19.7812 94.3498 19.3494 94.421 18.89V18.89C94.4153 18.8469 94.4153 18.8032 94.421 18.76V18.76C94.4154 18.7269 94.4154 18.6931 94.421 18.66V18.66C94.4449 18.6205 94.4787 18.5878 94.519 18.565C94.5593 18.5422 94.6047 18.5302 94.651 18.53C94.6961 18.529 94.7405 18.5419 94.778 18.5669C94.8156 18.592 94.8446 18.628 94.861 18.67C94.8731 18.7429 94.8731 18.8172 94.861 18.89V18.89C94.8413 19.3517 94.7776 19.8104 94.671 20.26L94.581 20.25Z" fill="#4D6AAF"></path> <path d="M114.941 21.7505H113.741H112.941H99.1909L97.6109 21.8005C97.5216 21.8024 97.433 21.7854 97.3509 21.7505C97.3061 21.731 97.2681 21.6988 97.2415 21.6579C97.2148 21.617 97.2007 21.5693 97.2009 21.5205C97.2267 21.4778 97.2616 21.4414 97.3031 21.4138C97.3445 21.3861 97.3916 21.3679 97.4409 21.3605C97.9109 21.3005 98.0809 21.3605 98.2009 20.8705C98.2323 20.7629 98.2524 20.6523 98.2609 20.5405V20.5405C98.2609 20.4105 98.2609 20.2305 98.2609 20.0105C98.2609 19.7905 98.2609 19.5105 98.2609 19.1905V16.9005V14.0505V12.1405V10.5505C98.2722 10.4441 98.2722 10.3368 98.2609 10.2305C98.227 10.1032 98.1535 9.99001 98.051 9.9073C97.9486 9.82459 97.8224 9.77667 97.6909 9.77047H97.6009C97.4544 9.75948 97.3073 9.75948 97.1609 9.77047C96.9709 9.77047 96.8809 9.69047 96.8809 9.52047C96.8809 9.35047 97.0209 9.24047 97.2909 9.24047L99.1209 9.29047L100.701 9.24047C100.971 9.24047 101.111 9.34047 101.111 9.52047C101.113 9.55956 101.104 9.59844 101.087 9.63344C101.069 9.66844 101.043 9.69839 101.011 9.72047C100.957 9.75467 100.895 9.77208 100.831 9.77047H100.431C100.359 9.77995 100.29 9.80443 100.228 9.84232C100.166 9.88021 100.112 9.93068 100.071 9.99047V9.99047C99.9755 10.1575 99.9304 10.3484 99.9409 10.5405V16.9005V18.9005C99.9409 19.2105 99.9409 19.4905 99.9409 19.7505C99.9409 20.0105 99.9409 20.2205 99.9409 20.4105C99.9409 20.4705 99.9409 20.5205 99.9409 20.5605V20.7205C99.9828 20.7358 100.029 20.7358 100.071 20.7205H104.631C104.68 20.732 104.732 20.732 104.781 20.7205V20.7205C104.781 20.6605 104.781 20.5505 104.781 20.4205V20.3405V20.0005C104.781 19.7605 104.781 19.4271 104.781 19.0005V16.9005V14.0505V12.1405V10.5305C104.792 10.4308 104.792 10.3302 104.781 10.2305V10.2305C104.763 10.1558 104.733 10.0848 104.691 10.0205V10.0205C104.62 9.9386 104.533 9.87298 104.434 9.8281C104.336 9.78322 104.229 9.76015 104.121 9.76047H103.981H103.881C103.691 9.76047 103.591 9.68047 103.591 9.51047C103.591 9.34047 103.731 9.23047 104.001 9.23047L105.631 9.28047L107.211 9.23047C107.481 9.23047 107.621 9.33047 107.621 9.51047C107.623 9.54956 107.614 9.58844 107.597 9.62344C107.579 9.65844 107.553 9.68839 107.521 9.71047C107.466 9.74314 107.404 9.76042 107.341 9.76047H106.941C106.941 9.84413 106.962 9.92646 107.001 10.0005V10.0005C106.906 10.1675 106.86 10.3584 106.871 10.5505V16.9005V17.7205C106.871 18.3905 106.871 19.0705 106.871 19.7205C106.871 19.9605 106.871 20.1905 106.871 20.3805C106.85 20.4895 106.85 20.6015 106.871 20.7105C106.871 20.7105 106.941 20.7105 107.061 20.7105H111.651C111.7 20.722 111.752 20.722 111.801 20.7105V20.7105C111.801 20.6505 111.801 20.5505 111.801 20.4105C111.847 19.982 111.87 19.5514 111.871 19.1205V19.1205V16.9005V10.5505C111.882 10.4441 111.882 10.3368 111.871 10.2305C111.847 10.1197 111.79 10.0187 111.708 9.94027C111.626 9.86189 111.523 9.80974 111.411 9.79047H111.111H111.001C110.811 9.79047 110.721 9.71047 110.721 9.54047C110.721 9.37047 110.861 9.26047 111.131 9.26047L112.951 9.31047L114.531 9.26047C114.801 9.26047 114.941 9.36047 114.941 9.54047C114.942 9.57845 114.935 9.61621 114.919 9.65087C114.903 9.68552 114.88 9.71617 114.851 9.74047C114.571 9.94047 114.141 9.74047 113.901 10.0605C113.806 10.2275 113.76 10.4184 113.771 10.6105V16.9005V19.6605C113.771 19.9205 113.771 20.1405 113.771 20.3205C113.771 20.7305 113.831 21.0905 114.291 21.1605L114.991 21.2205C115.045 21.2214 115.097 21.2368 115.143 21.2649C115.188 21.2931 115.226 21.333 115.251 21.3805C115.331 21.6505 115.111 21.7505 114.871 21.7505H114.941Z" fill="#4D6AAF"></path> <path d="M140.81 9.47962C140.812 9.51871 140.804 9.55759 140.786 9.59259C140.769 9.62759 140.743 9.65754 140.71 9.67962C140.657 9.71382 140.594 9.73123 140.53 9.72962C140.354 9.70937 140.176 9.70937 140 9.72962V9.72962C139.828 9.75608 139.671 9.84507 139.56 9.97962C139.454 10.1351 139.401 10.3213 139.41 10.5096V16.8996C139.41 17.6796 139.41 18.3496 139.41 18.8996C139.41 19.1596 139.41 19.4296 139.41 19.6896C139.41 19.9496 139.41 20.1296 139.41 20.2896C139.43 20.4778 139.46 20.6647 139.5 20.8496V20.8496C139.51 20.9205 139.54 20.9873 139.586 21.0421C139.632 21.0969 139.692 21.1377 139.76 21.1596L140.24 21.2196C140.298 21.2293 140.352 21.2524 140.399 21.2872C140.446 21.322 140.484 21.3673 140.51 21.4196V21.4196C140.51 21.5996 140.37 21.6996 140.1 21.6996L138.58 21.6496H137.67H136.6C136.511 21.6516 136.422 21.6345 136.34 21.5996C136.296 21.5801 136.258 21.5479 136.231 21.5071C136.204 21.4662 136.19 21.4184 136.19 21.3696C136.202 21.3023 136.235 21.2409 136.286 21.1954C136.337 21.15 136.402 21.1232 136.47 21.1196V21.1196L137.18 21.0596C137.254 21.0452 137.325 21.0181 137.39 20.9796V20.9796C137.441 20.9478 137.485 20.9072 137.52 20.8596C137.558 20.7827 137.588 20.7023 137.61 20.6196V20.6196C137.642 20.5148 137.665 20.4079 137.68 20.2996C137.68 20.1696 137.68 19.9896 137.68 19.7696C137.68 19.5496 137.68 19.2696 137.68 18.9496V16.8996V16.5296H135.94L134.58 18.7596L134.39 19.0496L134.21 19.3196C133.91 19.7596 133.67 20.1096 133.47 20.3196L133.32 20.4996L133.17 20.6696C132.813 21.165 132.28 21.5049 131.68 21.6196L131.23 21.6696H130.61H129.61C129.497 21.6837 129.383 21.6837 129.27 21.6696C129.215 21.6567 129.166 21.6263 129.13 21.583C129.094 21.5397 129.073 21.4859 129.07 21.4296C129.07 21.2296 129.3 21.1796 129.44 21.1796H129.58H129.86H129.97H130.07C130.242 21.1313 130.41 21.0677 130.57 20.9896V20.9896C130.763 20.8838 130.946 20.7634 131.12 20.6296C131.323 20.4666 131.513 20.2895 131.69 20.0996V20.0996C131.9 19.8396 132.12 19.5496 132.34 19.2296C132.56 18.9096 132.8 18.5696 133.03 18.2296C133.26 17.8896 133.51 17.4796 133.74 17.0996C133.97 16.7196 134.14 16.4196 134.33 16.0996C134.039 15.9677 133.764 15.8033 133.51 15.6096V15.6096C133.217 15.377 132.958 15.1043 132.74 14.7996C132.313 14.2569 132.075 13.59 132.06 12.8996C132.05 12.3323 132.174 11.7706 132.42 11.2596C132.665 10.7673 133.034 10.3469 133.49 10.0396V10.0396C133.598 9.95829 133.712 9.88477 133.83 9.81962V9.81962C133.95 9.75962 134.07 9.68962 134.19 9.63962C134.876 9.34925 135.616 9.20616 136.36 9.21962C137.07 9.21962 137.78 9.29962 138.48 9.34962L140.3 9.29962C140.57 9.29962 140.71 9.39962 140.71 9.57962L140.81 9.47962ZM137.81 15.2696V10.2696C137.547 10.1612 137.276 10.071 137 9.99962C136.8 9.99962 136.61 9.93962 136.45 9.92962H136.07C135.804 9.92885 135.538 9.96246 135.28 10.0296C135.05 10.0939 134.833 10.1989 134.64 10.3396C134.375 10.5356 134.17 10.8025 134.05 11.1096C133.835 11.7146 133.785 12.3658 133.904 12.9967C134.024 13.6276 134.309 14.2153 134.73 14.6996V14.6996C134.82 14.7796 134.9 14.8696 134.99 14.9396C135.075 15.0158 135.166 15.0859 135.26 15.1496V15.1496C135.745 15.4736 136.317 15.6411 136.9 15.6296C137.39 15.6296 137.61 15.6296 137.8 15.2496L137.81 15.2696Z" fill="#4D6AAF"></path> <path d="M181.809 21.4701C181.809 21.6501 181.639 21.7501 181.299 21.7501H179.629H179.339C179.107 21.73 178.878 21.6795 178.659 21.6001V21.6001C178.438 21.5177 178.226 21.4103 178.029 21.2801V21.2801L177.709 21.0501L177.289 20.7201C177.23 20.677 177.173 20.6302 177.119 20.5801L176.899 20.3701C176.469 19.9501 175.789 19.2401 174.899 18.2501L173.349 16.5601C173.039 16.2101 172.779 15.9201 172.589 15.6901V16.9001V17.9001C172.493 18.9058 172.571 19.9207 172.819 20.9001C172.857 20.9557 172.908 21.0018 172.967 21.0347C173.026 21.0677 173.092 21.0866 173.159 21.0901C173.378 21.0773 173.597 21.0975 173.809 21.1501C174.089 21.2401 174.199 21.4601 173.899 21.6301C173.817 21.6659 173.728 21.683 173.639 21.6801H172.499H171.729L170.169 21.7301C170.08 21.732 169.991 21.7149 169.909 21.6801C169.88 21.6671 169.854 21.6485 169.832 21.6253C169.81 21.6022 169.793 21.5749 169.782 21.5451C169.771 21.5154 169.766 21.4837 169.767 21.4519C169.768 21.4201 169.776 21.3889 169.789 21.3601C169.815 21.3174 169.85 21.281 169.891 21.2533C169.933 21.2257 169.98 21.2075 170.029 21.2001L170.499 21.1401C170.789 21.0701 170.819 20.6001 170.849 20.3801C170.899 19.9301 170.909 19.4801 170.919 19.0301V16.9001V14.0501V12.1401V10.5501C170.93 10.4437 170.93 10.3364 170.919 10.2301C170.895 10.13 170.847 10.0373 170.779 9.96005C170.631 9.84066 170.449 9.77071 170.259 9.76005C170.113 9.74906 169.966 9.74906 169.819 9.76005C169.629 9.76005 169.539 9.68005 169.539 9.51005C169.539 9.46126 169.553 9.41348 169.58 9.37261C169.606 9.33175 169.644 9.29957 169.689 9.28005V9.28005C169.771 9.24516 169.86 9.22811 169.949 9.23005H170.949H171.709L173.289 9.18005C173.569 9.18005 173.709 9.28005 173.709 9.46005C173.709 9.50815 173.692 9.55461 173.659 9.59005V9.59005C173.652 9.60452 173.643 9.61738 173.631 9.62774C173.619 9.6381 173.604 9.64571 173.589 9.65005V9.65005C173.537 9.66622 173.481 9.66622 173.429 9.65005H173.029C172.954 9.65806 172.881 9.68179 172.816 9.71969C172.75 9.75758 172.693 9.80881 172.649 9.87005V9.87005C172.554 10.0371 172.509 10.228 172.519 10.4201V14.5901C172.679 14.4101 172.939 14.1501 173.289 13.7801L174.909 12.1001L176.109 10.8701C176.279 10.6901 176.429 10.5401 176.539 10.4101L176.799 10.1001V10.0401V9.98005C176.83 9.93063 176.854 9.87666 176.869 9.82005V9.82005C176.881 9.77081 176.881 9.7193 176.869 9.67005V9.67005C176.85 9.66391 176.829 9.66391 176.809 9.67005V9.67005L176.639 9.58005C176.608 9.56116 176.583 9.53468 176.565 9.50315C176.548 9.47162 176.539 9.43612 176.539 9.40005C176.539 9.22005 176.649 9.13005 176.879 9.13005L178.089 9.18005L179.639 9.13005C179.725 9.12797 179.81 9.14505 179.889 9.18005V9.18005C179.935 9.19529 179.974 9.22505 180.001 9.26478C180.028 9.30451 180.042 9.35203 180.039 9.40005C180.039 9.57005 179.929 9.66005 179.719 9.66005C179.586 9.6472 179.452 9.6472 179.319 9.66005C179.162 9.7067 179.009 9.76349 178.859 9.83005V9.83005L178.709 9.90005L178.579 9.98005C178.326 10.1208 178.091 10.2921 177.879 10.4901L177.179 11.1901C176.939 11.4101 176.539 11.8101 175.969 12.3701L174.359 13.9501C174.059 14.2601 173.839 14.4901 173.719 14.6301L174.029 14.9601L174.799 15.7701C174.949 15.9401 175.189 16.1901 175.509 16.5101L176.709 17.7301C177.409 18.4501 177.869 18.9001 178.059 19.0801L178.809 19.7801L179.209 20.1301C179.394 20.2949 179.591 20.4453 179.799 20.5801C180.003 20.6986 180.213 20.8054 180.429 20.9001L180.679 20.9801L180.979 21.0501H181.379C181.619 21.0501 181.739 21.1301 181.739 21.3001L181.809 21.4701Z" fill="#4D6AAF"></path> <path d="M195.451 15.2003C195.507 16.9769 194.856 18.7032 193.641 20.0003V20.0003C193.473 20.1862 193.293 20.36 193.101 20.5203V20.5203C192.911 20.6803 192.711 20.8303 192.511 20.9703C191.177 21.8241 189.585 22.1808 188.014 21.9778C186.443 21.7748 184.994 21.0251 183.921 19.8603V19.8603C183.781 19.6903 183.651 19.5103 183.531 19.3403C183.411 19.1594 183.301 18.9725 183.201 18.7803C182.67 17.7695 182.402 16.6417 182.421 15.5003C182.417 14.7332 182.549 13.9714 182.811 13.2503C183.075 12.5221 183.465 11.8454 183.961 11.2503C184.542 10.5235 185.29 9.94731 186.141 9.57033C187.862 8.86023 189.785 8.81038 191.541 9.43033V9.43033C191.671 9.47163 191.798 9.52175 191.921 9.58033C192.55 9.85007 193.128 10.2255 193.631 10.6903C194.245 11.2707 194.728 11.9766 195.045 12.76C195.363 13.5433 195.508 14.3859 195.471 15.2303L195.451 15.2003ZM193.591 15.6503C193.603 14.8196 193.482 13.9924 193.231 13.2003C193 12.5025 192.629 11.8593 192.141 11.3103V11.3103C191.721 10.8426 191.211 10.4649 190.641 10.2003C189.459 9.7325 188.143 9.7325 186.961 10.2003C186.418 10.4224 185.933 10.7642 185.541 11.2003V11.2003C185.321 11.4222 185.129 11.6708 184.971 11.9403V11.9403C184.805 12.225 184.671 12.5268 184.571 12.8403C184.339 13.5673 184.227 14.3274 184.241 15.0903V15.0903C184.164 16.681 184.677 18.2441 185.681 19.4803V19.4803C185.821 19.6303 185.961 19.7803 186.101 19.9103C186.241 20.0403 186.391 20.1603 186.541 20.2803C187.182 20.7381 187.931 21.0219 188.714 21.1043C189.497 21.1867 190.289 21.0647 191.011 20.7503V20.7503L191.311 20.6003C191.412 20.5476 191.509 20.4875 191.601 20.4203V20.4203C192.073 20.0962 192.469 19.6731 192.761 19.1803V19.1803C193.351 18.1221 193.635 16.9207 193.581 15.7103L193.591 15.6503Z" fill="#4D6AAF"></path> <path d="M205.999 21.2603C205.975 21.2815 205.955 21.3075 205.941 21.3368C205.928 21.3661 205.92 21.398 205.919 21.4303C205.919 21.4741 205.932 21.5169 205.957 21.5528C205.982 21.5886 206.018 21.6158 206.059 21.6303C206.089 21.636 206.12 21.636 206.149 21.6303V21.6303C206.286 21.6456 206.423 21.6456 206.559 21.6303L209.099 21.6803C209.829 21.6003 209.569 21.1403 209.259 21.1503C209.082 21.1748 208.901 21.1616 208.729 21.1116C208.556 21.0617 208.396 20.9761 208.259 20.8603L208.099 20.7003C207.879 20.4392 207.694 20.15 207.549 19.8403L207.439 19.6103C207.039 18.6903 206.689 17.7503 206.329 16.8103L205.959 15.8603C205.529 14.7603 205.109 13.6603 204.689 12.5603L204.419 11.8603C204.219 11.3203 204.009 10.7803 203.809 10.2503L203.689 9.93035L203.569 9.62035C203.569 9.49035 203.479 9.38035 203.439 9.29035C203.411 9.22477 203.377 9.16128 203.339 9.10035C203.3 9.05093 203.246 9.01485 203.185 8.99697C203.124 8.97909 203.06 8.98027 202.999 9.00035C202.948 8.98205 202.891 8.98205 202.839 9.00035V9.00035C202.799 9.03339 202.765 9.07417 202.739 9.12035V9.12035C202.702 9.18851 202.669 9.25861 202.639 9.33035C202.639 9.42035 202.559 9.54035 202.509 9.68035L198.839 19.7603C198.723 20.1164 198.554 20.4533 198.339 20.7603C198.255 20.8772 198.148 20.9756 198.024 21.0496C197.9 21.1235 197.762 21.1714 197.619 21.1903H197.149C196.849 21.1903 196.729 21.5503 197.019 21.6703C197.112 21.7058 197.21 21.7227 197.309 21.7203V21.7203H198.249H199.139L200.399 21.7703C200.579 21.7703 200.799 21.7003 200.799 21.4903C200.799 21.0703 200.059 21.3903 199.889 21.0503C199.878 21.0078 199.878 20.9629 199.889 20.9203C199.891 20.6861 199.928 20.4535 199.999 20.2303L201.369 16.2303L202.779 11.9203L204.289 16.2203L204.579 17.0103L206.079 21.0103C206.199 21.2803 206.079 21.2503 205.939 21.3303L205.999 21.2603Z" fill="#4D6AAF"></path> <path d="M239.349 17.8105C239.349 17.9405 239.249 18.0605 239.189 18.1905C238.897 18.8566 238.495 19.4686 237.999 20.0005V20.0005C237.396 20.6557 236.658 21.1735 235.837 21.5186C235.015 21.8637 234.13 22.028 233.239 22.0005C232.553 22.001 231.868 21.9508 231.189 21.8505V21.8505L230.689 21.7705C230.329 21.7428 229.984 21.6184 229.689 21.4105C229.612 21.3508 229.554 21.2712 229.519 21.1805V21.1805C229.51 21.1074 229.51 21.0335 229.519 20.9605V20.9605C229.513 20.8605 229.513 20.7604 229.519 20.6605C229.519 20.5005 229.519 20.3305 229.519 20.1405C229.519 19.7305 229.589 19.3105 229.629 18.8905C229.616 18.8076 229.616 18.7233 229.629 18.6405C229.65 18.6008 229.682 18.5676 229.721 18.5445C229.76 18.5214 229.804 18.5092 229.849 18.5092C229.894 18.5092 229.938 18.5214 229.977 18.5445C230.016 18.5676 230.048 18.6008 230.069 18.6405C230.086 18.7026 230.086 18.7683 230.069 18.8305V18.8305C230.091 19.122 230.145 19.4103 230.229 19.6905C230.26 19.7699 230.296 19.8468 230.339 19.9205C230.559 20.3127 230.915 20.6113 231.339 20.7605V20.7605C231.48 20.8097 231.623 20.8498 231.769 20.8805C232.276 20.9811 232.792 21.028 233.309 21.0205C233.962 21.0297 234.611 20.9108 235.219 20.6705C235.309 20.6388 235.396 20.5986 235.479 20.5505V20.5505C235.921 20.33 236.316 20.0241 236.639 19.6505V19.6505C236.75 19.5234 236.854 19.3898 236.949 19.2505V19.2505C237.039 19.1005 237.129 18.9505 237.209 18.7905C237.657 17.8238 237.869 16.7649 237.829 15.7005C237.839 15.6007 237.839 15.5002 237.829 15.4005H234.119C233.759 15.3855 233.399 15.4226 233.049 15.5105C232.956 15.5483 232.868 15.5988 232.789 15.6605C232.626 15.8075 232.496 15.9884 232.409 16.1905L232.309 16.3805C232.229 16.5805 232.099 16.6705 231.909 16.5905C231.871 16.5585 231.839 16.5189 231.817 16.4742C231.794 16.4294 231.781 16.3804 231.779 16.3305C231.85 15.7611 231.971 15.199 232.139 14.6505C232.139 14.5205 232.139 14.3605 232.289 14.2805C232.34 14.2401 232.404 14.2189 232.469 14.2205L232.599 14.2705L232.759 14.3705C232.815 14.404 232.875 14.4277 232.939 14.4405C233.103 14.4784 233.271 14.5019 233.439 14.5105H237.769C237.69 13.8463 237.508 13.1985 237.229 12.5905V12.5905C236.966 12.0132 236.593 11.4933 236.129 11.0605V11.0605C235.896 10.8453 235.641 10.6544 235.369 10.4905C234.677 10.0786 233.884 9.8674 233.079 9.88045V9.88045C232.744 9.87473 232.41 9.89815 232.079 9.95045C231.799 9.99528 231.524 10.069 231.259 10.1705C231.021 10.2539 230.798 10.3755 230.599 10.5305V10.5305C230.416 10.6706 230.26 10.8435 230.139 11.0405C230.05 11.188 229.989 11.3507 229.959 11.5205V11.5205C229.926 11.624 229.909 11.7319 229.909 11.8405C229.909 11.9305 229.909 12.2805 229.849 12.3605C229.789 12.4405 229.679 12.6305 229.539 12.5205C229.477 12.4784 229.428 12.4194 229.399 12.3505V12.3505C229.367 12.2774 229.347 12.1998 229.339 12.1205V12.1205V11.9005L229.289 11.1605V10.9905V10.8405C229.289 10.6005 229.289 10.4005 229.289 10.2605C229.291 10.1662 229.315 10.0737 229.359 9.99045V9.99045C229.411 9.92764 229.476 9.87653 229.549 9.84045V9.84045L229.849 9.70045L230.139 9.57045C230.335 9.49328 230.536 9.42652 230.739 9.37045V9.37045C230.94 9.31657 231.144 9.27318 231.349 9.24045C231.983 9.09526 232.629 9.01484 233.279 9.00045C234.982 8.93185 236.646 9.52697 237.919 10.6605C238.536 11.2104 239.018 11.8947 239.329 12.6605C239.944 14.3255 239.944 16.1554 239.329 17.8205L239.349 17.8105Z" fill="#4D6AAF"></path> <path d="M285.1 21.7505H283.91H283.11L281.53 21.8005C281.441 21.8013 281.353 21.7843 281.27 21.7505C281.227 21.7295 281.191 21.6967 281.166 21.6559C281.142 21.6152 281.129 21.5682 281.13 21.5205C281.14 21.4562 281.171 21.3971 281.218 21.352C281.265 21.3069 281.326 21.2783 281.39 21.2705L281.86 21.2105C281.904 21.2009 281.946 21.1802 281.98 21.1505V21.1505C282.123 20.9442 282.203 20.7011 282.21 20.4505C282.21 20.3205 282.21 20.1405 282.21 19.9205C282.21 19.7005 282.21 19.4205 282.21 19.1005V16.9005V15.4305H275.45V16.9005V19.2905C275.402 19.8614 275.484 20.4357 275.69 20.9705C275.725 21.0271 275.773 21.0741 275.831 21.1073C275.889 21.1404 275.954 21.1587 276.02 21.1605V21.1605L276.72 21.2205C276.86 21.2205 277.01 21.3005 277.01 21.4705C277.01 21.6405 276.88 21.7505 276.6 21.7505H275.73H274.61L273.02 21.8005C272.928 21.8023 272.836 21.7853 272.75 21.7505C272.705 21.731 272.667 21.6988 272.641 21.6579C272.614 21.617 272.6 21.5693 272.6 21.5205C272.6 21.2205 273.16 21.2305 273.35 21.2105C273.76 21.1205 273.73 20.2105 273.74 19.9205C273.75 19.6305 273.74 19.4205 273.74 19.1005V18.1005V16.9005V14.0505V12.1405V10.5505C273.756 10.4516 273.751 10.3503 273.723 10.2539C273.696 10.1575 273.647 10.0684 273.581 9.99288C273.515 9.91739 273.433 9.85741 273.342 9.81723C273.25 9.77705 273.15 9.75767 273.05 9.76047C272.904 9.74948 272.757 9.74948 272.61 9.76047C272.42 9.76047 272.33 9.68047 272.33 9.51047C272.33 9.34047 272.47 9.23047 272.74 9.23047L274.57 9.28047L276.16 9.23047C276.43 9.23047 276.57 9.33047 276.57 9.51047C276.569 9.54915 276.56 9.58717 276.543 9.62177C276.525 9.65637 276.501 9.68667 276.47 9.71047C276.281 9.76565 276.087 9.7992 275.89 9.81047C275.5 9.88047 275.4 10.2205 275.4 10.5805V14.5805H282.16V10.5805C282.171 10.4741 282.171 10.3668 282.16 10.2605C282.14 10.1867 282.11 10.116 282.07 10.0505V10.0505C281.988 9.98561 281.892 9.94106 281.79 9.92047H281.49H281.16C280.96 9.92047 280.87 9.84047 280.87 9.67047C280.87 9.50047 281.01 9.39047 281.28 9.39047L283.1 9.44047L284.69 9.39047C284.96 9.39047 285.1 9.49047 285.1 9.67047C285.101 9.70845 285.094 9.74621 285.078 9.78087C285.063 9.81552 285.039 9.84617 285.01 9.87047C284.952 9.9035 284.887 9.92075 284.82 9.92047H284.42C284.348 9.92995 284.279 9.95443 284.217 9.99232C284.155 10.0302 284.101 10.0807 284.06 10.1405V10.1405C283.965 10.3075 283.92 10.4984 283.93 10.6905V18.0605C283.93 18.6505 283.93 19.2405 283.93 19.8305C283.93 21.0905 284.04 21.3705 285.19 21.3605C285.29 21.3605 285.45 21.3605 285.49 21.5705C285.53 21.7805 285.31 21.8905 285.06 21.8905L285.1 21.7505Z" fill="#4D6AAF"></path> <path d="M301.739 15.2004C301.79 16.9653 301.143 18.6791 299.939 19.9704V19.9704C299.769 20.1539 299.589 20.3275 299.399 20.4904V20.4904C299.215 20.6513 299.021 20.8016 298.819 20.9404C297.723 21.6322 296.445 21.9805 295.149 21.9404C294.219 21.9888 293.289 21.8196 292.435 21.4464C291.581 21.0733 290.826 20.5063 290.229 19.7904V19.7904C290.089 19.6204 289.959 19.4404 289.839 19.2704C289.719 19.1004 289.609 18.9004 289.499 18.7104C288.977 17.697 288.712 16.5704 288.729 15.4304C288.727 14.6642 288.855 13.9033 289.109 13.1804C289.382 12.454 289.774 11.7781 290.269 11.1804C290.849 10.4562 291.593 9.8804 292.439 9.50039C293.323 9.13666 294.274 8.96618 295.229 9.00039V9.00039C296.107 8.98932 296.98 9.13145 297.809 9.42039V9.42039C297.939 9.4617 298.066 9.51181 298.189 9.57039C298.818 9.84013 299.397 10.2156 299.899 10.6804C300.512 11.2617 300.992 11.968 301.308 12.7513C301.624 13.5346 301.768 14.3767 301.729 15.2204L301.739 15.2004ZM299.889 15.6504C299.902 14.8197 299.78 13.9924 299.529 13.2004C299.295 12.5044 298.924 11.8619 298.439 11.3104V11.3104C298.018 10.84 297.504 10.4621 296.929 10.2004C296.36 9.94768 295.742 9.82145 295.119 9.83039C294.485 9.81801 293.853 9.92661 293.259 10.1504C292.717 10.3724 292.231 10.7143 291.839 11.1504V11.1504C291.625 11.3751 291.437 11.6234 291.279 11.8904V11.8904C291.114 12.1751 290.98 12.4768 290.879 12.7904C290.647 13.5174 290.536 14.2774 290.549 15.0404V15.0404C290.487 16.6217 291.002 18.1716 291.999 19.4004V19.4004C292.132 19.551 292.272 19.6945 292.419 19.8304C292.559 19.9604 292.709 20.0804 292.859 20.2004C293.655 20.7684 294.612 21.0664 295.589 21.0504V21.0504C296.187 21.0497 296.777 20.9201 297.319 20.6704V20.6704L297.629 20.5204C297.727 20.4675 297.821 20.4074 297.909 20.3404V20.3404C298.384 20.0159 298.783 19.593 299.079 19.1004V19.1004C299.669 18.0422 299.953 16.8407 299.899 15.6304L299.889 15.6504Z" fill="#4D6AAF"></path> <path d="M320.91 21.4705C320.904 21.5217 320.884 21.5702 320.853 21.6108C320.821 21.6514 320.779 21.6824 320.73 21.7005C320.631 21.7365 320.526 21.7534 320.42 21.7505H318.77C318.49 21.7505 317.06 21.9005 317.06 21.4205C317.06 21.2205 317.17 21.2705 317.23 21.2105C317.54 21.0105 316.66 13.9405 316.56 12.8405L312.78 20.7605L312.49 21.3405C312.4 21.5305 312.19 21.8505 311.94 21.6305C311.869 21.5557 311.809 21.4716 311.76 21.3805V21.3805L311.47 20.8705L309.58 17.1205L309.52 16.9905L309.41 16.7605C309.18 16.2905 308.77 15.4005 308.18 14.1105L307.63 12.9305L307 20.0005C307 20.8705 306.93 21.2105 307.84 21.2505C308.33 21.2505 308.31 21.8005 307.74 21.7805C307.17 21.7605 306.74 21.7805 306.2 21.7305L304.83 21.7805C304.737 21.7842 304.644 21.7636 304.56 21.7205C304.32 21.5905 304.41 21.3805 304.56 21.2905C304.603 21.2774 304.648 21.2774 304.69 21.2905C305.48 21.2905 305.58 20.8605 305.69 20.0305L306.89 9.40047C306.89 9.23047 307 8.98047 307.22 8.98047C307.44 8.98047 307.52 9.15047 307.6 9.30047L312.41 19.2105L317 9.32047C317.07 9.17047 317.18 8.98047 317.38 8.98047C317.438 8.98153 317.494 9.00035 317.54 9.03435C317.587 9.06836 317.622 9.11589 317.64 9.17047C317.688 9.29163 317.716 9.42016 317.72 9.55047V9.55047L318.81 19.5505V19.7205C318.84 20.0697 318.938 20.4096 319.1 20.7205C319.39 21.1905 320.1 21.2205 320.56 21.2205C320.68 21.2205 320.86 21.3005 320.84 21.4705H320.91Z" fill="#4D6AAF"></path> <path d="M335.891 21.75H334.691H333.891L332.311 21.8C332.221 21.8029 332.132 21.7858 332.051 21.75C331.995 21.7271 331.949 21.6851 331.922 21.6315C331.895 21.5779 331.888 21.5163 331.903 21.4581C331.918 21.3998 331.953 21.3487 332.002 21.3142C332.051 21.2797 332.111 21.264 332.171 21.27L332.631 21.21C333.001 21.12 333.011 20.21 333.031 19.92C333.031 18.92 333.031 17.92 333.031 16.92V12.25C331.984 13.4833 330.941 14.7266 329.901 15.98L329.001 17.09C327.741 18.65 326.521 20.25 325.301 21.84C325.261 21.9134 325.206 21.9781 325.141 22.03V22.03C325.077 22.0869 324.996 22.1189 324.911 22.12C324.711 22.12 324.611 21.97 324.611 21.68V10.55C324.611 10.04 324.441 9.82996 323.931 9.75996C323.784 9.74919 323.637 9.74919 323.491 9.75996C323.453 9.76167 323.415 9.75517 323.38 9.74091C323.346 9.72665 323.314 9.70498 323.288 9.6774C323.263 9.64981 323.243 9.61697 323.232 9.58115C323.22 9.54534 323.216 9.5074 323.221 9.46996C323.221 9.34996 323.401 9.22996 323.611 9.22996L325.431 9.28996L327.001 9.19996C327.271 9.19996 327.411 9.29996 327.411 9.47996C327.411 9.65996 327.321 9.72996 327.131 9.72996C326.551 9.79996 326.271 9.91996 326.271 10.55V18.75L326.721 18.22L328.461 16.16L328.861 15.68C329.571 14.82 330.291 13.95 330.991 13.07C331.511 12.43 331.991 11.78 332.541 11.13L334.001 9.23996C334.035 9.16316 334.09 9.09685 334.158 9.0477C334.226 8.99855 334.307 8.96829 334.391 8.95996C334.721 8.95996 334.691 9.34996 334.691 9.57996V16.9C334.691 17.76 334.691 18.63 334.691 19.49C334.691 20 334.631 20.98 335.261 21.16L335.971 21.22C336.351 21.22 336.311 21.75 335.841 21.75H335.891Z" fill="#4D6AAF"></path> <path d="M55.6504 37.1004V30.9204H56.4704V33.4604H59.6804V30.9204H60.5004V37.1004H59.6804V34.1904H56.4704V37.1004H55.6504ZM62.8304 37.1004L65.2104 30.9204H66.0904L68.6204 37.1004H67.6904L67.0004 35.2304H64.3804L63.7004 37.1004H62.8304ZM64.6204 34.5604H66.7104L66.0704 32.8504C65.8704 32.3304 65.7204 31.8504 65.6304 31.5704C65.5496 31.9724 65.4359 32.3671 65.2904 32.7504L64.6204 34.5604ZM70.9304 30.9204H71.7504V36.3704H75.0004V30.9204H75.8204V36.3704H76.3904V38.8104H75.6604V37.1004H70.9604V30.9204H70.9304ZM78.9304 30.9204H79.6704V35.8104L83.0004 30.9204H83.8204V37.1004H83.0804V32.2104L79.8004 37.1004H79.0004V30.9204H78.9304ZM86.5304 34.0904C86.5031 33.6538 86.5625 33.2162 86.7049 32.8026C86.8473 32.389 87.0701 32.0077 87.3604 31.6804C87.6335 31.3928 87.9647 31.1665 88.3319 31.0165C88.6991 30.8666 89.094 30.7963 89.4904 30.8104C90.032 30.8001 90.5656 30.9421 91.0304 31.2204C91.4684 31.494 91.8162 31.8905 92.0304 32.3604C92.2711 32.8843 92.3957 33.4539 92.3957 34.0304C92.3957 34.6069 92.2711 35.1766 92.0304 35.7004C91.8075 36.1688 91.4485 36.5591 91.0004 36.8204C90.5384 37.0756 90.0181 37.2065 89.4904 37.2004C88.9651 37.1961 88.4506 37.051 88.0004 36.7804C87.5657 36.4985 87.2192 36.1 87.0004 35.6304C86.7705 35.1496 86.651 34.6234 86.6504 34.0904H86.5304ZM87.3704 34.0904C87.3335 34.7329 87.5488 35.3643 87.9704 35.8504C88.1626 36.0578 88.3965 36.222 88.6568 36.3323C88.917 36.4426 89.1978 36.4965 89.4804 36.4904C89.7654 36.4967 90.0485 36.4419 90.3107 36.3298C90.5728 36.2177 90.808 36.0509 91.0004 35.8404C91.4297 35.3272 91.6446 34.6681 91.6004 34.0004C91.6082 33.547 91.5196 33.097 91.3404 32.6804C91.1806 32.3248 90.9203 32.0237 90.5917 31.8141C90.263 31.6044 89.8802 31.4954 89.4904 31.5004C89.2145 31.4956 88.9405 31.5462 88.6845 31.6492C88.4285 31.7523 88.1959 31.9057 88.0004 32.1004C87.7648 32.3734 87.5875 32.6916 87.4792 33.0355C87.3708 33.3794 87.3338 33.7417 87.3704 34.1004V34.0904ZM95.1704 37.0904V30.9204H96.0004V33.4604H99.2104V30.9204H100.03V37.1004H99.2104V34.1904H96.0004V37.1004L95.1704 37.0904ZM102.36 37.0904L104.73 30.9104H105.61L108.14 37.0904H107.21L106.49 35.2204H104L103.32 37.0904H102.36ZM104.14 34.5504H106.24L105.59 32.8404C105.4 32.3204 105.25 31.8404 105.15 31.5604C105.073 31.9622 104.963 32.3568 104.82 32.7404L104.14 34.5504V34.5504ZM111.14 30.9104H115V37.1004H114.18V31.6504H112V34.8304C112.013 35.3055 111.983 35.7807 111.91 36.2504C111.867 36.5202 111.733 36.7672 111.53 36.9504C111.323 37.1223 111.059 37.2114 110.79 37.2004C110.57 37.1965 110.352 37.1628 110.14 37.1004L110.28 36.3804C110.391 36.428 110.51 36.4551 110.63 36.4604C110.711 36.4646 110.792 36.4473 110.864 36.4104C110.936 36.3736 110.997 36.3184 111.04 36.2504C111.172 35.9346 111.22 35.5903 111.18 35.2504V30.9204L111.14 30.9104ZM118.04 30.9104H118.86V33.5504H120.34C120.849 33.5195 121.358 33.6014 121.83 33.7904C122.119 33.9279 122.354 34.1563 122.5 34.4404C122.629 34.7056 122.697 34.9958 122.7 35.2904C122.707 35.7581 122.531 36.21 122.21 36.5504C121.959 36.759 121.669 36.9144 121.356 37.0072C121.043 37.1 120.715 37.1283 120.39 37.0904H118V30.9204L118.04 30.9104ZM118.86 36.3904H120.36C120.569 36.4205 120.781 36.4076 120.984 36.3525C121.186 36.2975 121.376 36.2015 121.54 36.0704C121.729 35.8553 121.829 35.5765 121.82 35.2904C121.827 35.0638 121.757 34.8417 121.62 34.6604C121.487 34.4926 121.3 34.3761 121.09 34.3304C120.717 34.267 120.339 34.2402 119.96 34.2504H118.86V36.4004V36.3904ZM125.36 37.0904V30.9204H126.18V33.4604H129.39V30.9204H130.21V37.1004H129.39V34.1904H126.18V37.1004L125.36 37.0904ZM133.27 30.9104H134.08V33.5504H135.56C135.898 33.5039 136.242 33.5269 136.57 33.618C136.899 33.7092 137.205 33.8665 137.47 34.0804C137.777 34.4188 137.946 34.859 137.946 35.3154C137.946 35.7719 137.777 36.2121 137.47 36.5504C137.219 36.758 136.928 36.9127 136.615 37.0055C136.303 37.0983 135.974 37.1272 135.65 37.0904H133.3V30.9204L133.27 30.9104ZM134.08 36.3904H135.58C135.972 36.4249 136.364 36.3339 136.7 36.1304C136.82 36.0291 136.913 35.9012 136.974 35.7571C137.035 35.6129 137.061 35.4565 137.05 35.3004C137.057 35.0692 136.982 34.8431 136.84 34.6604C136.705 34.4836 136.509 34.3626 136.29 34.3204C135.923 34.2614 135.552 34.238 135.18 34.2504H134.08V36.4004V36.3904ZM138.67 30.9104H139.48V37.1004H138.67V30.9204V30.9104ZM142.54 30.9104H143.28V35.8004L146.56 30.9104H147.39V37.1004H146.65V32.2104L143.35 37.1004H142.54V30.9204V30.9104ZM145.61 29.4404H146.13C146.11 29.7508 145.97 30.0412 145.74 30.2504C145.497 30.4445 145.191 30.5439 144.88 30.5304C144.726 30.5441 144.571 30.5264 144.423 30.4785C144.276 30.4306 144.14 30.3534 144.023 30.2517C143.907 30.1499 143.812 30.0255 143.744 29.8861C143.677 29.7467 143.638 29.5951 143.63 29.4404H144.15C144.173 29.6077 144.26 29.7596 144.392 29.8641C144.525 29.9686 144.693 30.0175 144.86 30.0004C145.04 30.0159 145.22 29.97 145.37 29.8704C145.5 29.7609 145.585 29.6081 145.61 29.4404V29.4404ZM155.2 30.9104H155.94V35.8004L159.22 30.9104H160.05V37.1004H159.3V32.2104L156 37.1004H155.19V30.9204L155.2 30.9104ZM167.45 34.9104L168.27 35.1204C168.14 35.7205 167.817 36.2614 167.35 36.6604C166.88 37.017 166.301 37.2007 165.71 37.1804C165.143 37.2087 164.58 37.0696 164.09 36.7804C163.644 36.4991 163.295 36.0871 163.09 35.6004C162.877 35.0731 162.768 34.5093 162.77 33.9404C162.756 33.3587 162.883 32.7822 163.14 32.2604C163.353 31.8001 163.702 31.4162 164.14 31.1604C164.599 30.9153 165.111 30.7882 165.63 30.7904C166.188 30.773 166.735 30.9381 167.19 31.2604C167.626 31.5927 167.94 32.0606 168.08 32.5904L167.27 32.7804C167.174 32.3902 166.957 32.0402 166.65 31.7804C166.359 31.5719 166.008 31.4632 165.65 31.4704C165.228 31.4551 164.811 31.5741 164.46 31.8104C164.142 32.0375 163.904 32.3596 163.78 32.7304C163.652 33.1139 163.588 33.516 163.59 33.9204C163.583 34.3873 163.661 34.8517 163.82 35.2904C163.947 35.6578 164.198 35.9692 164.53 36.1704C164.85 36.3642 165.217 36.4646 165.59 36.4604C166.011 36.4708 166.422 36.3327 166.75 36.0704C167.093 35.7626 167.319 35.3457 167.39 34.8904L167.45 34.9104ZM175.34 34.9104L176.16 35.1204C176.03 35.7205 175.707 36.2614 175.24 36.6604C174.77 37.017 174.191 37.2007 173.6 37.1804C173.033 37.2087 172.47 37.0696 171.98 36.7804C171.534 36.4991 171.185 36.0871 170.98 35.6004C170.788 35.0892 170.693 34.5466 170.7 34.0004C170.687 33.42 170.811 32.8445 171.06 32.3204C171.294 31.8544 171.663 31.4707 172.12 31.2204C172.579 30.9753 173.091 30.8482 173.61 30.8504C174.168 30.833 174.715 30.9981 175.17 31.3204C175.604 31.6532 175.914 32.1214 176.05 32.6504L175.25 32.8404C175.155 32.4475 174.934 32.0964 174.62 31.8404C174.331 31.6286 173.979 31.5195 173.62 31.5304C173.198 31.5151 172.781 31.6341 172.43 31.8704C172.112 32.0975 171.874 32.4196 171.75 32.7904C171.622 33.1739 171.558 33.576 171.56 33.9804C171.553 34.4473 171.631 34.9117 171.79 35.3504C171.917 35.7178 172.168 36.0292 172.5 36.2304C172.817 36.4224 173.18 36.5228 173.55 36.5204C173.974 36.5323 174.388 36.3941 174.72 36.1304C175.063 35.8226 175.289 35.4057 175.36 34.9504L175.34 34.9104ZM178.99 30.9104H182.86V37.1004H182V31.6504H179.8V34.8304C179.813 35.3055 179.783 35.7807 179.71 36.2504C179.667 36.5202 179.533 36.7672 179.33 36.9504C179.124 37.124 178.86 37.2133 178.59 37.2004C178.374 37.1963 178.158 37.1627 177.95 37.1004L178.08 36.3804C178.192 36.4266 178.31 36.4537 178.43 36.4604C178.513 36.4653 178.595 36.4485 178.668 36.4116C178.742 36.3748 178.805 36.3192 178.85 36.2504C178.976 35.933 179.024 35.5902 178.99 35.2504V30.9204V30.9104ZM185.87 37.0904V30.9204H190.34V31.6504H186.69V33.5404H190.11V34.2704H186.69V36.3704H190.49V37.1004L185.87 37.0904ZM193.87 30.9104H197.63V36.3604H198.19V38.5304H197.46V37.1004H193.37V38.5404H192.64V36.3704H193.12C193.62 35.6204 193.87 34.1004 193.87 31.8204V30.9204V30.9104ZM196.81 31.6404H194.66V32.0004C194.66 32.5304 194.61 33.2504 194.52 34.1604C194.458 34.936 194.269 35.6961 193.96 36.4104H196.81V31.6504V31.6404ZM200.56 34.0804C200.51 33.1993 200.808 32.3336 201.39 31.6704C201.664 31.3828 201.995 31.1565 202.362 31.0065C202.729 30.8566 203.124 30.7863 203.52 30.8004C204.065 30.7898 204.602 30.9318 205.07 31.2104C205.507 31.4858 205.854 31.8818 206.07 32.3504C206.318 32.8681 206.441 33.4366 206.43 34.0104C206.442 34.593 206.312 35.1697 206.05 35.6904C205.824 36.1654 205.457 36.5597 205 36.8204C204.542 37.0761 204.025 37.2071 203.5 37.2004C202.951 37.2089 202.411 37.0634 201.94 36.7804C201.501 36.5042 201.153 36.1041 200.94 35.6304C200.703 35.1519 200.58 34.6247 200.58 34.0904L200.56 34.0804ZM201.4 34.0804C201.369 34.7221 201.583 35.3517 202 35.8404C202.193 36.0478 202.426 36.212 202.687 36.3223C202.947 36.4326 203.228 36.4865 203.51 36.4804C203.796 36.4914 204.081 36.4388 204.344 36.3264C204.606 36.214 204.841 36.0446 205.03 35.8304C205.46 35.3172 205.675 34.6581 205.63 33.9904C205.638 33.537 205.55 33.087 205.37 32.6704C205.218 32.3117 204.96 32.0082 204.63 31.8004C204.302 31.5923 203.919 31.4846 203.53 31.4904C203.253 31.4865 202.978 31.5374 202.72 31.6404C202.463 31.7434 202.228 31.8963 202.03 32.0904C201.797 32.3646 201.621 32.683 201.512 33.0265C201.404 33.3701 201.366 33.7319 201.4 34.0904V34.0804ZM209.15 37.0804V30.9204H211.47C211.855 30.9056 212.239 30.9667 212.6 31.1004C212.87 31.2231 213.1 31.4197 213.263 31.6675C213.426 31.9152 213.515 32.204 213.52 32.5004C213.522 32.7634 213.445 33.0209 213.3 33.2404C213.146 33.4917 212.92 33.6904 212.65 33.8104C212.99 33.8983 213.292 34.0949 213.51 34.3704C213.72 34.6381 213.83 34.9706 213.82 35.3104C213.819 35.5881 213.754 35.8619 213.63 36.1104C213.528 36.3364 213.374 36.5351 213.18 36.6904C212.976 36.8354 212.745 36.9375 212.5 36.9904C212.173 37.069 211.837 37.106 211.5 37.1004L209.15 37.0804ZM209.97 33.4904H211.3C211.562 33.5034 211.825 33.4798 212.08 33.4204C212.269 33.3775 212.436 33.2673 212.55 33.1104C212.662 32.9569 212.718 32.7701 212.71 32.5804C212.715 32.3864 212.663 32.1953 212.56 32.0304C212.465 31.8751 212.315 31.761 212.14 31.7104C211.831 31.6459 211.516 31.6191 211.2 31.6304H209.97V33.4904V33.4904ZM209.97 36.3504H211.5C211.687 36.3657 211.874 36.3657 212.06 36.3504C212.226 36.3233 212.386 36.2656 212.53 36.1804C212.662 36.0939 212.772 35.9774 212.85 35.8404C212.932 35.6794 212.973 35.5009 212.97 35.3204C212.976 35.1063 212.913 34.896 212.79 34.7204C212.674 34.5466 212.501 34.4192 212.3 34.3604C212.008 34.2784 211.704 34.2413 211.4 34.2504H209.97V36.3804V36.3504ZM215.63 37.0804L218 30.9204H218.88L221.41 37.1004H220.47L219.75 35.2304H217.17L216.49 37.1004L215.63 37.0804ZM217.41 34.5404H219.51L218.87 32.8304C218.67 32.3104 218.52 31.8304 218.43 31.5504C218.35 31.9524 218.236 32.3471 218.09 32.7304L217.41 34.5404ZM224.62 37.0804V31.6504H222.62V30.9204H227.52V31.6504H225.52V37.1004L224.62 37.0804ZM229.99 37.0804V30.9204H234.46V31.6504H230.81V33.5404H234.23V34.2704H230.81V36.3704H234.61V37.1004L229.99 37.0804ZM237.84 30.9004H241.71V37.1004H240.89V31.6504H238.66V34.8304C238.673 35.3055 238.643 35.7807 238.57 36.2504C238.527 36.5202 238.393 36.7672 238.19 36.9504C237.983 37.1223 237.719 37.2114 237.45 37.2004C237.23 37.1965 237.012 37.1628 236.8 37.1004L236.94 36.3804C237.051 36.428 237.17 36.4551 237.29 36.4604C237.371 36.4646 237.452 36.4473 237.524 36.4104C237.596 36.3736 237.657 36.3184 237.7 36.2504C237.826 35.933 237.874 35.5902 237.84 35.2504V30.9204V30.9004ZM244.74 30.9004H245.56V33.5404H247C247.512 33.5087 248.024 33.5906 248.5 33.7804C248.789 33.9179 249.024 34.1463 249.17 34.4304C249.299 34.6956 249.367 34.9858 249.37 35.2804C249.377 35.7481 249.201 36.2001 248.88 36.5404C248.629 36.748 248.338 36.9027 248.025 36.9955C247.713 37.0883 247.384 37.1172 247.06 37.0804H244.7V30.9204L244.74 30.9004ZM245.56 36.3804H247C247.209 36.4105 247.421 36.3976 247.624 36.3425C247.826 36.2875 248.016 36.1915 248.18 36.0604C248.365 35.8428 248.464 35.5657 248.46 35.2804C248.467 35.0538 248.397 34.8317 248.26 34.6504C248.127 34.4826 247.94 34.3661 247.73 34.3204C247.354 34.2566 246.972 34.2298 246.59 34.2404H245.5V36.4004L245.56 36.3804ZM256.25 34.9104L257.07 35.1204C256.94 35.7229 256.613 36.2649 256.14 36.6604C255.674 37.0178 255.098 37.2016 254.51 37.1804C253.943 37.2087 253.38 37.0696 252.89 36.7804C252.444 36.4991 252.095 36.0871 251.89 35.6004C251.677 35.0731 251.568 34.5093 251.57 33.9404C251.557 33.36 251.681 32.7845 251.93 32.2604C252.164 31.7944 252.533 31.4107 252.99 31.1604C253.449 30.9153 253.961 30.7882 254.48 30.7904C255.038 30.773 255.585 30.9381 256.04 31.2604C256.476 31.5927 256.79 32.0606 256.93 32.5904L256.12 32.7804C256.024 32.3902 255.807 32.0402 255.5 31.7804C255.209 31.5719 254.858 31.4632 254.5 31.4704C254.078 31.4551 253.661 31.5741 253.31 31.8104C252.992 32.0375 252.754 32.3596 252.63 32.7304C252.502 33.1139 252.438 33.516 252.44 33.9204C252.428 34.3877 252.506 34.853 252.67 35.2904C252.797 35.6578 253.048 35.9692 253.38 36.1704C253.7 36.3642 254.067 36.4646 254.44 36.4604C254.861 36.4708 255.272 36.3327 255.6 36.0704C255.943 35.7626 256.169 35.3457 256.24 34.8904L256.25 34.9104ZM259.75 30.9104H260.56V33.6104C260.841 33.6395 261.122 33.5648 261.35 33.4004C261.595 33.0997 261.791 32.7622 261.93 32.4004C262.048 32.1048 262.192 31.8204 262.36 31.5504C262.482 31.3729 262.643 31.2257 262.83 31.1204C263.039 31.0082 263.273 30.9498 263.51 30.9504H264.01V31.6604H263.68C263.576 31.6509 263.47 31.6628 263.371 31.6955C263.271 31.7282 263.179 31.7809 263.1 31.8504C262.905 32.0927 262.753 32.3667 262.65 32.6604C262.538 33.0219 262.362 33.3605 262.13 33.6604C261.974 33.7954 261.799 33.9066 261.61 33.9904C262.126 34.1995 262.546 34.5911 262.79 35.0904L264 37.1004H263L262 35.4204C261.804 35.0576 261.562 34.7215 261.28 34.4204C261.181 34.3295 261.064 34.2595 260.937 34.2148C260.81 34.1702 260.675 34.1517 260.54 34.1604V37.1004H259.73V30.9204L259.75 30.9104ZM266.43 30.9104H267.17V35.8004L270.46 30.9104H271.28V37.1004H270.54V32.2104L267.25 37.1004H266.43V30.9204V30.9104ZM274.29 30.9104H275V35.8004L278.29 30.9104H279.11V37.1004H278.37V32.2104L275.08 37.1004H274.26V30.9204L274.29 30.9104ZM277.37 29.4404H277.88C277.859 29.7483 277.723 30.0371 277.5 30.2504C277.256 30.4429 276.951 30.5422 276.64 30.5304C276.329 30.5439 276.024 30.4445 275.78 30.2504C275.55 30.0412 275.411 29.7508 275.39 29.4404H275.91C275.93 29.6068 276.015 29.7587 276.146 29.8635C276.277 29.9682 276.444 30.0174 276.61 30.0004C276.793 30.0143 276.976 29.9687 277.13 29.8704C277.26 29.7609 277.345 29.6081 277.37 29.4404V29.4404ZM286.31 30.9104H287.14L289.14 34.6904L290.91 30.9104H291.72L289.4 35.7104C289.223 36.1364 288.983 36.5339 288.69 36.8904C288.583 36.9891 288.457 37.0649 288.319 37.113C288.182 37.1612 288.036 37.1807 287.89 37.1704C287.628 37.16 287.369 37.1129 287.12 37.0304V36.3304C287.331 36.4512 287.568 36.5166 287.81 36.5204C288.003 36.521 288.188 36.4497 288.33 36.3204C288.544 36.0634 288.707 35.7682 288.81 35.4504L286.3 30.9104H286.31ZM294.1 37.0904V30.9204H294.92V33.4604H298.13V30.9204H298.95V37.1004H298.13V34.1904H294.92V37.1004L294.1 37.0904ZM301.98 30.9104H302.72V35.8004L306 30.9204H306.82V37.1004H306.08V32.2104L302.79 37.1004H301.97V30.9204L301.98 30.9104ZM309.79 37.0904V30.9204H312.11C312.498 30.9061 312.886 30.9672 313.25 31.1004C313.528 31.2197 313.763 31.4224 313.92 31.6804C314.077 31.9254 314.16 32.2099 314.16 32.5004C314.16 32.7618 314.088 33.018 313.95 33.2404C313.793 33.4893 313.568 33.6874 313.3 33.8104C313.64 33.9003 313.941 34.0966 314.16 34.3704C314.363 34.6413 314.468 34.9723 314.46 35.3104C314.463 35.5874 314.401 35.8612 314.28 36.1104C314.175 36.3344 314.021 36.5324 313.83 36.6904C313.626 36.8354 313.395 36.9375 313.15 36.9904C312.823 37.0683 312.487 37.1053 312.15 37.1004L309.79 37.0904ZM310.61 33.5004H311.95C312.212 33.5121 312.475 33.4886 312.73 33.4304C312.918 33.385 313.085 33.2754 313.2 33.1204C313.308 32.965 313.364 32.7795 313.36 32.5904C313.365 32.3964 313.313 32.2053 313.21 32.0404C313.111 31.8893 312.963 31.7765 312.79 31.7204C312.481 31.6568 312.166 31.6299 311.85 31.6404H310.61V33.5004ZM310.61 36.3604H312.15C312.337 36.3753 312.524 36.3753 312.71 36.3604C312.876 36.3316 313.035 36.2741 313.18 36.1904C313.313 36.1077 313.42 35.9901 313.49 35.8504C313.572 35.6894 313.613 35.5109 313.61 35.3304C313.614 35.1181 313.555 34.9094 313.44 34.7304C313.323 34.5541 313.145 34.4263 312.94 34.3704C312.648 34.287 312.344 34.2498 312.04 34.2604H310.61V36.3904V36.3604ZM317.26 37.0904V30.9204H321.73V31.6504H318V33.5404H321.42V34.2704H318V36.3704H321.79V37.1004L317.26 37.0904ZM324.66 37.0904V30.9204H327C327.315 30.9139 327.629 30.9339 327.94 30.9804C328.213 31.0153 328.474 31.1147 328.7 31.2704C328.914 31.4188 329.084 31.6228 329.19 31.8604C329.358 32.2143 329.418 32.6094 329.362 32.9969C329.307 33.3844 329.14 33.7473 328.88 34.0404C328.631 34.2494 328.343 34.4059 328.032 34.5004C327.721 34.595 327.394 34.6256 327.07 34.5904H325.48V37.1004L324.66 37.0904ZM325.47 33.8504H327C327.401 33.8889 327.802 33.7825 328.13 33.5504C328.242 33.4444 328.33 33.3152 328.387 33.1719C328.444 33.0285 328.469 32.8745 328.46 32.7204C328.466 32.4847 328.396 32.2533 328.26 32.0604C328.141 31.8797 327.959 31.7483 327.75 31.6904C327.496 31.6503 327.238 31.6335 326.98 31.6404H325.4V33.8504H325.47ZM336.38 34.9204L337.2 35.1304C337.07 35.7305 336.747 36.2714 336.28 36.6704C335.81 37.027 335.231 37.2107 334.64 37.1904C334.07 37.2149 333.505 37.0761 333.01 36.7904C332.566 36.5067 332.217 36.0954 332.01 35.6104C331.802 35.0993 331.697 34.5522 331.7 34.0004C331.687 33.42 331.811 32.8445 332.06 32.3204C332.293 31.8573 332.659 31.4743 333.11 31.2204C333.573 30.9764 334.088 30.8494 334.61 30.8504C335.168 30.833 335.715 30.9981 336.17 31.3204C336.604 31.6532 336.914 32.1214 337.05 32.6504L336.25 32.8404C336.155 32.4475 335.934 32.0964 335.62 31.8404C335.331 31.6286 334.979 31.5195 334.62 31.5304C334.198 31.5151 333.781 31.6341 333.43 31.8704C333.112 32.0975 332.874 32.4196 332.75 32.7904C332.622 33.1739 332.558 33.576 332.56 33.9804C332.553 34.4473 332.631 34.9117 332.79 35.3504C332.917 35.7178 333.168 36.0292 333.5 36.2304C333.802 36.4137 334.147 36.5137 334.5 36.5204C334.924 36.5323 335.339 36.3941 335.67 36.1304C336.008 35.8186 336.233 35.4037 336.31 34.9504L336.38 34.9204ZM339.87 30.9204H340.61V35.8104L343.9 30.9204H344.73V37.1004H343.98V32.2104L340.69 37.1004H339.87V30.9204V30.9204ZM349.29 37.1004V31.6504H347.29V30.9204H352.19V31.6504H350.14V37.1004H349.29ZM354.67 37.1004V30.9204H359.14V31.6504H355.48V33.5404H358.9V34.2704H355.48V36.3704H359.28V37.1004H354.67ZM363.67 37.1004V31.6504H361.67V30.9204H366.57V31.6504H364.57V37.1004H363.67Z" fill="#4D6AAF"></path> <path d="M255.459 21.4704C255.459 21.6504 255.289 21.7504 254.959 21.7504H253.289H252.989C252.76 21.7313 252.535 21.6809 252.319 21.6004V21.6004C252.096 21.516 251.881 21.4088 251.679 21.2804V21.2804L251.369 21.0504L250.939 20.7204C250.88 20.6773 250.823 20.6306 250.769 20.5804L250.549 20.3704C250.119 19.9504 249.429 19.2404 248.499 18.2504L246.939 16.5604L246.179 15.6904V16.9004V17.9004C246.093 18.9063 246.17 19.9195 246.409 20.9004C246.451 20.9553 246.503 21.0007 246.564 21.0334C246.624 21.0662 246.691 21.0856 246.759 21.0904V21.0904C246.978 21.078 247.197 21.0982 247.409 21.1504C247.689 21.2404 247.789 21.4604 247.499 21.6304C247.417 21.6653 247.329 21.6824 247.239 21.6804H246.149H245.369L243.819 21.7304C243.73 21.7333 243.641 21.7162 243.559 21.6804C243.53 21.6675 243.504 21.6489 243.482 21.6257C243.461 21.6025 243.444 21.5753 243.433 21.5455C243.421 21.5157 243.416 21.484 243.417 21.4523C243.419 21.4205 243.426 21.3893 243.439 21.3604C243.465 21.3178 243.5 21.2814 243.542 21.2537C243.583 21.2261 243.63 21.2079 243.679 21.2004L244.149 21.1404C244.439 21.0704 244.469 20.6004 244.499 20.3804C244.549 19.9304 244.549 19.4804 244.559 19.0304V16.9004V14.0504V12.1404V10.5504C244.577 10.4444 244.577 10.3364 244.559 10.2304C244.544 10.1274 244.495 10.0324 244.419 9.96042C244.276 9.8393 244.097 9.76898 243.909 9.76042C243.763 9.74943 243.616 9.74943 243.469 9.76042C243.279 9.76042 243.189 9.68042 243.189 9.51042C243.189 9.46163 243.203 9.41385 243.23 9.37298C243.257 9.33211 243.295 9.29994 243.339 9.28042V9.28042C243.421 9.2446 243.51 9.22752 243.599 9.23042H244.599H245.359L246.999 9.20042C247.279 9.20042 247.409 9.30042 247.409 9.48042C247.425 9.5224 247.425 9.56843 247.409 9.61042V9.61042C247.394 9.6383 247.369 9.65964 247.339 9.67042V9.67042C247.287 9.68542 247.232 9.68542 247.179 9.67042H246.769C246.696 9.67855 246.624 9.70239 246.561 9.74034C246.497 9.77828 246.442 9.82946 246.399 9.89042V9.89042C246.304 10.0574 246.259 10.2484 246.269 10.4404V14.6104L247.049 13.8004L248.669 12.1204L249.869 10.8904L250.299 10.4304C250.389 10.3321 250.472 10.2286 250.549 10.1204V10.1204V10.0604V10.0004C250.579 9.9513 250.6 9.89703 250.609 9.84042C250.622 9.79117 250.622 9.73967 250.609 9.69042V9.69042C250.593 9.68691 250.576 9.68691 250.559 9.69042V9.69042L250.389 9.60042C250.358 9.58203 250.331 9.55592 250.311 9.52446C250.292 9.49301 250.281 9.45724 250.279 9.42042C250.279 9.24042 250.399 9.15042 250.629 9.15042L251.839 9.20042L253.389 9.15042C253.475 9.14959 253.56 9.16661 253.639 9.20042V9.20042C253.682 9.21861 253.719 9.24938 253.744 9.28866C253.769 9.32794 253.781 9.37389 253.779 9.42042C253.779 9.59042 253.679 9.68042 253.469 9.68042C253.336 9.66705 253.202 9.66705 253.069 9.68042C252.91 9.72855 252.753 9.7853 252.599 9.85042V9.85042L252.449 9.92042L252.309 10.0004C252.058 10.1437 251.823 10.3148 251.609 10.5104L250.919 11.2104C250.679 11.4304 250.269 11.8304 249.699 12.3904L248.099 13.9704C247.789 14.2804 247.579 14.5104 247.449 14.6504L247.769 14.9804L248.539 15.7904L249.249 16.5304L250.449 17.7504C251.159 18.4704 251.619 18.9204 251.809 19.1004L252.549 19.8004L252.939 20.1504C253.13 20.3131 253.33 20.4634 253.539 20.6004C253.741 20.7229 253.952 20.8299 254.169 20.9204C254.25 20.9559 254.334 20.9827 254.419 21.0004L254.719 21.0704H255.109C255.349 21.0704 255.469 21.1504 255.469 21.3204L255.459 21.4704Z" fill="#4D6AAF"></path> <path d="M352.199 21.47C352.199 21.65 352.039 21.75 351.699 21.75H349.999H349.699C349.47 21.7299 349.245 21.6794 349.029 21.6V21.6C348.806 21.5156 348.591 21.4084 348.389 21.28V21.28L348.099 21L347.679 20.67C347.62 20.6269 347.563 20.5802 347.509 20.53L347.289 20.32C346.859 19.9 346.179 19.19 345.239 18.2C344.599 17.52 344.079 16.95 343.679 16.51L342.919 15.64V16.9V17.9C342.833 18.9059 342.91 19.9191 343.149 20.9C343.191 20.9549 343.243 21.0003 343.304 21.033C343.364 21.0658 343.431 21.0853 343.499 21.09V21.09C343.718 21.0773 343.937 21.0975 344.149 21.15C344.429 21.24 344.529 21.46 344.239 21.63C344.157 21.6649 344.069 21.682 343.979 21.68H342.899H342.129L340.569 21.73C340.48 21.7329 340.391 21.7159 340.309 21.68C340.28 21.6671 340.254 21.6485 340.232 21.6253C340.211 21.6022 340.194 21.5749 340.183 21.5451C340.171 21.5154 340.166 21.4837 340.167 21.4519C340.169 21.4201 340.176 21.3889 340.189 21.36C340.215 21.3174 340.25 21.281 340.292 21.2533C340.333 21.2257 340.38 21.2075 340.429 21.2L340.899 21.14C341.189 21.07 341.219 20.6 341.249 20.38C341.299 19.93 341.299 19.48 341.309 19.03V18.03V16.9V14.05V12.14V10.55C341.321 10.4437 341.321 10.3364 341.309 10.23C341.294 10.127 341.245 10.032 341.169 9.96003C341.026 9.83891 340.847 9.76859 340.659 9.76003C340.513 9.74904 340.366 9.74904 340.219 9.76003C340.029 9.76003 339.939 9.68003 339.939 9.51003C339.939 9.46124 339.953 9.41346 339.98 9.3726C340.007 9.33173 340.045 9.29955 340.089 9.28003V9.28003C340.171 9.24421 340.26 9.22713 340.349 9.23003H341.349H342.119L343.699 9.18003C343.979 9.18003 344.109 9.28003 344.109 9.46003C344.11 9.50813 344.092 9.55459 344.059 9.59003V9.59003C344.044 9.61791 344.019 9.63926 343.989 9.65003V9.65003C343.937 9.6662 343.882 9.6662 343.829 9.65003H343.419C343.346 9.65816 343.274 9.682 343.211 9.71995C343.147 9.7579 343.092 9.80907 343.049 9.87003V9.87003C342.951 10.036 342.902 10.227 342.909 10.42V14.59L343.689 13.78L345.309 12.1L346.509 10.87L346.939 10.41C347.029 10.3117 347.112 10.2082 347.189 10.1V10.1V10.04V9.98003C347.219 9.93091 347.24 9.87665 347.249 9.82003V9.82003C347.256 9.77028 347.256 9.71979 347.249 9.67003V9.67003C347.233 9.66652 347.216 9.66652 347.199 9.67003V9.67003L347.029 9.58003C346.999 9.56114 346.973 9.53466 346.956 9.50313C346.938 9.4716 346.929 9.4361 346.929 9.40003C346.929 9.22003 347.039 9.13003 347.269 9.13003L348.479 9.18003L350.019 9.13003C350.102 9.12808 350.184 9.14519 350.259 9.18003V9.18003C350.305 9.19527 350.344 9.22503 350.372 9.26476C350.399 9.3045 350.412 9.35201 350.409 9.40003C350.409 9.57003 350.309 9.66003 350.099 9.66003C349.966 9.64667 349.832 9.64667 349.699 9.66003C349.54 9.70816 349.383 9.76491 349.229 9.83003V9.83003L349.079 9.90003L348.939 9.98003C348.688 10.1233 348.453 10.2944 348.239 10.49L347.549 11.19C347.309 11.41 346.909 11.81 346.339 12.37L344.729 13.95C344.419 14.26 344.209 14.49 344.079 14.63L344.399 14.96L345.169 15.77L345.879 16.51L347.079 17.73C347.789 18.45 348.249 18.9 348.439 19.08L349.189 19.78L349.579 20.13C349.77 20.2927 349.97 20.443 350.179 20.58C350.381 20.7025 350.592 20.8095 350.809 20.9L351.049 20.98L351.359 21.05H351.749C351.989 21.05 352.109 21.13 352.109 21.3L352.199 21.47Z" fill="#4D6AAF"></path> <path d="M269.099 15.2001C269.158 16.9752 268.511 18.7014 267.299 20.0001C267.129 20.1801 266.939 20.3601 266.759 20.5201C266.575 20.6785 266.382 20.8255 266.179 20.9601C264.844 21.8165 263.25 22.1747 261.677 21.9717C260.104 21.7687 258.653 21.0174 257.579 19.8501V19.8501C257.441 19.6834 257.31 19.5099 257.189 19.3301C257.069 19.1501 256.959 18.9701 256.849 18.7801C256.322 17.7647 256.058 16.6338 256.079 15.4901C256.072 14.7268 256.201 13.9683 256.459 13.2501C256.726 12.5208 257.119 11.8439 257.619 11.2501C258.203 10.5299 258.946 9.9549 259.789 9.57006C261.516 8.86943 263.439 8.81968 265.199 9.43006V9.43006L265.569 9.58006C266.201 9.8507 266.783 10.226 267.289 10.6901C267.902 11.2714 268.383 11.9776 268.698 12.761C269.014 13.5443 269.158 14.3864 269.119 15.2301L269.099 15.2001ZM267.249 15.6601C267.263 14.8253 267.138 13.994 266.879 13.2001C266.655 12.5048 266.287 11.8644 265.799 11.3201V11.3201C265.379 10.8461 264.865 10.4647 264.289 10.2001C263.11 9.73487 261.798 9.73487 260.619 10.2001C260.079 10.4271 259.595 10.7682 259.199 11.2001V11.2001C258.988 11.4303 258.8 11.6816 258.639 11.9501C258.473 12.2321 258.336 12.5303 258.229 12.8401C258.012 13.5395 257.901 14.2676 257.899 15.0001V15.0001C257.829 16.593 258.341 18.1571 259.339 19.4001V19.4001C259.466 19.5529 259.603 19.6965 259.749 19.8301C259.892 19.9622 260.042 20.0858 260.199 20.2001C260.839 20.6567 261.585 20.9408 262.366 21.0249C263.148 21.109 263.937 20.9902 264.659 20.6801V20.6801C264.767 20.6403 264.871 20.59 264.969 20.5301L265.249 20.3601C265.723 20.0385 266.122 19.6191 266.419 19.1301V19.1301C267.008 18.0715 267.292 16.8703 267.239 15.6601H267.249Z" fill="#4D6AAF"></path> <path d="M365.89 21.75H364.689H363.899L362.309 21.8C362.22 21.8029 362.131 21.7858 362.049 21.75C361.994 21.7271 361.948 21.6851 361.921 21.6315C361.894 21.5779 361.887 21.5163 361.902 21.4581C361.916 21.3998 361.952 21.3487 362.001 21.3142C362.05 21.2797 362.11 21.264 362.17 21.27L362.629 21.21C363.009 21.12 363.009 20.21 363.029 19.92C363.029 18.92 363.029 17.92 363.029 16.92V12.25C361.969 13.4833 360.926 14.7266 359.899 15.98L358.999 17.09C357.749 18.65 356.519 20.25 355.299 21.84C355.26 21.9134 355.205 21.9781 355.14 22.03V22.03C355.076 22.0869 354.995 22.1189 354.909 22.12C354.709 22.12 354.609 21.97 354.609 21.68V10.55C354.609 10.04 354.439 9.82996 353.929 9.75996C353.783 9.74897 353.636 9.74897 353.489 9.75996C353.452 9.76006 353.415 9.75247 353.381 9.73767C353.347 9.72287 353.316 9.70117 353.291 9.67394C353.266 9.64671 353.246 9.61454 353.234 9.57944C353.222 9.54433 353.217 9.50706 353.219 9.46996C353.219 9.34996 353.399 9.22996 353.619 9.22996L355.429 9.28996L356.999 9.19996C357.259 9.19996 357.399 9.29996 357.399 9.47996C357.399 9.65996 357.309 9.72996 357.129 9.72996C356.539 9.79996 356.269 9.91996 356.269 10.55V18.75L356.719 18.22L358.459 16.16L358.859 15.68C359.619 14.8133 360.333 13.94 360.999 13.06C361.519 12.42 361.999 11.77 362.549 11.12L363.999 9.23996C364.035 9.16375 364.09 9.09796 364.158 9.04892C364.226 8.99989 364.306 8.96925 364.39 8.95996C364.72 8.95996 364.689 9.34996 364.689 9.57996V16.9C364.689 17.76 364.689 18.63 364.689 19.49C364.689 20 364.619 20.98 365.249 21.16L365.959 21.22C366.349 21.22 366.299 21.75 365.829 21.75H365.89Z" fill="#4D6AAF"></path> <path d="M123.439 16.0898L121.999 11.8598L120.619 16.0898H123.439ZM125.269 20.9398L123.789 16.9998V16.9398H120.309C119.939 18.0098 119.549 19.0498 119.219 20.1498C119.109 20.5598 118.949 21.1498 119.579 21.1498H119.739C119.949 21.1498 120.059 21.2298 120.059 21.3998C120.06 21.4475 120.048 21.4945 120.023 21.5352C119.998 21.576 119.962 21.6088 119.919 21.6298C119.837 21.6656 119.749 21.6827 119.659 21.6798L118.399 21.6298L116.569 21.6798C116.47 21.6822 116.372 21.6652 116.279 21.6298C116.243 21.6168 116.21 21.5956 116.183 21.5678C116.156 21.54 116.137 21.5064 116.125 21.4696C116.113 21.4328 116.11 21.3938 116.116 21.3556C116.122 21.3175 116.137 21.2813 116.159 21.2498V21.2498C116.182 21.2452 116.206 21.2452 116.229 21.2498V21.2498C116.285 21.2339 116.344 21.2339 116.399 21.2498C116.618 21.2894 116.843 21.2705 117.052 21.195C117.261 21.1195 117.446 20.99 117.589 20.8198C117.8 20.5104 117.968 20.1741 118.089 19.8198L121.759 9.75977C121.839 9.53977 121.949 9.00977 122.259 9.00977C122.314 9.01 122.369 9.02495 122.416 9.05307C122.463 9.0812 122.503 9.12148 122.529 9.16977C122.659 9.42977 122.779 9.74977 122.879 10.0098C123.209 10.8898 123.549 11.7698 123.879 12.6498C124.419 14.0698 124.979 15.6498 125.469 16.9298C125.866 18.313 126.503 19.616 127.349 20.7798C127.451 20.9177 127.584 21.03 127.736 21.1081C127.889 21.1862 128.058 21.2278 128.229 21.2298C128.439 21.2298 128.789 21.2298 128.719 21.5498C128.719 21.6898 128.399 21.7898 128.259 21.7798H125.709C125.529 21.7798 125.079 21.7798 125.079 21.4998C125.079 21.2198 125.409 21.2998 125.299 21.0098L125.269 20.9398Z" fill="#4D6AAF"></path> <path d="M216.74 16.0905L215.26 11.8605L213.88 16.0905H216.74ZM218.57 20.9405L217.09 17.0005V16.9405H213.61C213.25 18.0105 212.86 19.0505 212.53 20.1505C212.42 20.5605 212.25 21.1505 212.89 21.1505H213C213.21 21.1505 213.31 21.2305 213.31 21.4005C213.311 21.4482 213.298 21.4952 213.273 21.5359C213.248 21.5767 213.213 21.6095 213.17 21.6305C213.088 21.667 212.999 21.6841 212.91 21.6805L211.65 21.6305L209.82 21.6805C209.721 21.6829 209.622 21.6659 209.53 21.6305C209.493 21.6182 209.459 21.5971 209.432 21.5691C209.405 21.541 209.386 21.5068 209.375 21.4694C209.364 21.432 209.362 21.3925 209.37 21.3544C209.378 21.3162 209.395 21.2806 209.42 21.2505V21.2505C209.443 21.2459 209.467 21.2459 209.49 21.2505V21.2505C209.542 21.2343 209.598 21.2343 209.65 21.2505C209.868 21.2912 210.094 21.2727 210.303 21.1972C210.512 21.1216 210.698 20.9915 210.84 20.8205C211.054 20.5135 211.223 20.1765 211.34 19.8205L215 9.73047C215.08 9.51047 215.19 8.98047 215.5 8.98047C215.556 8.98096 215.612 8.99592 215.661 9.02394C215.71 9.05195 215.751 9.09207 215.78 9.14047C215.9 9.40047 216.02 9.72047 216.12 9.98047C216.45 10.8605 216.79 11.7405 217.12 12.6205C217.66 14.0405 218.22 15.6205 218.72 16.9005C219.114 18.2831 219.746 19.5861 220.59 20.7505C220.692 20.8884 220.824 21.0007 220.977 21.0788C221.129 21.1569 221.298 21.1985 221.47 21.2005C221.68 21.2005 222.03 21.2005 221.96 21.5205C221.96 21.6605 221.64 21.7605 221.5 21.7505H218.96C218.77 21.7505 218.32 21.7505 218.32 21.4705C218.32 21.1905 218.66 21.2705 218.54 20.9805L218.57 20.9405Z" fill="#4D6AAF"></path> <path d="M166.48 21.7505H165.29H164.49H150.74L149.16 21.8005C149.07 21.8024 148.982 21.7854 148.9 21.7505C148.855 21.731 148.817 21.6988 148.79 21.6579C148.764 21.617 148.75 21.5693 148.75 21.5205C148.776 21.4778 148.81 21.4414 148.852 21.4138C148.893 21.3861 148.94 21.3679 148.99 21.3605C149.46 21.3005 149.62 21.3605 149.75 20.8705L149.81 20.5405C149.81 20.4105 149.81 20.2305 149.81 20.0105C149.81 19.7905 149.81 19.5105 149.81 19.1905V16.9005V14.0505V12.1405V10.5505C149.821 10.4441 149.821 10.3368 149.81 10.2305C149.776 10.1032 149.702 9.99001 149.6 9.9073C149.497 9.82459 149.371 9.77667 149.24 9.77047H149.15C149.003 9.75948 148.856 9.75948 148.71 9.77047C148.52 9.77047 148.43 9.69047 148.43 9.52047C148.43 9.35047 148.57 9.24047 148.84 9.24047L150.67 9.29047L152.25 9.24047C152.52 9.24047 152.66 9.34047 152.66 9.52047C152.661 9.55956 152.653 9.59844 152.636 9.63344C152.618 9.66844 152.592 9.69839 152.56 9.72047C152.506 9.75467 152.443 9.77208 152.38 9.77047H151.98C151.908 9.77995 151.838 9.80443 151.776 9.84232C151.714 9.88021 151.661 9.93068 151.62 9.99047V9.99047C151.524 10.1575 151.479 10.3484 151.49 10.5405V16.9005V18.9005C151.49 19.2105 151.49 19.4905 151.49 19.7505C151.49 20.0105 151.49 20.2205 151.54 20.4105C151.54 20.4705 151.54 20.5205 151.54 20.5605C151.535 20.6137 151.535 20.6672 151.54 20.7205V20.7205C151.582 20.7358 151.628 20.7358 151.67 20.7205H156.23C156.279 20.732 156.33 20.732 156.38 20.7205V20.7205L156.43 20.4205V20.3405V20.0005C156.43 19.7605 156.43 19.4271 156.43 19.0005V16.9005V14.0505V12.1405V10.5305C156.441 10.4308 156.441 10.3302 156.43 10.2305C156.412 10.1558 156.381 10.0848 156.34 10.0205V10.0205C156.269 9.9386 156.182 9.87298 156.083 9.8281C155.985 9.78322 155.878 9.76015 155.77 9.76047H155.63H155.53C155.34 9.76047 155.24 9.68047 155.24 9.51047C155.24 9.34047 155.38 9.23047 155.65 9.23047L157.28 9.28047L158.86 9.23047C159.13 9.23047 159.27 9.33047 159.27 9.51047C159.269 9.54915 159.26 9.58717 159.242 9.62177C159.225 9.65637 159.2 9.68667 159.17 9.71047C159.115 9.74314 159.053 9.76042 158.99 9.76047H158.59C158.517 9.76869 158.448 9.79264 158.385 9.83064C158.323 9.86864 158.27 9.91978 158.23 9.98047V9.98047C158.134 10.1475 158.089 10.3384 158.1 10.5305V16.9005V17.7205C158.1 18.3905 158.1 19.0705 158.1 19.7205C158.1 19.9605 158.1 20.1905 158.15 20.3805C158.135 20.49 158.135 20.601 158.15 20.7105C158.15 20.7105 158.23 20.7105 158.35 20.7105H162.94C162.989 20.722 163.04 20.722 163.09 20.7105V20.7105C163.09 20.6505 163.09 20.5505 163.14 20.4105C163.14 20.1905 163.16 19.7605 163.2 19.1205V18.1205V16.9005V10.5505C163.211 10.4441 163.211 10.3368 163.2 10.2305C163.175 10.1197 163.119 10.0187 163.037 9.94027C162.955 9.86189 162.851 9.80974 162.74 9.79047H162.44H162.1C161.91 9.79047 161.82 9.71047 161.82 9.54047C161.82 9.37047 161.96 9.26047 162.23 9.26047L164.06 9.31047L165.64 9.26047C165.91 9.26047 166.05 9.36047 166.05 9.54047C166.051 9.57956 166.043 9.61844 166.026 9.65344C166.008 9.68844 165.982 9.71839 165.95 9.74047C165.68 9.94047 165.25 9.74047 165.01 10.0605C164.914 10.2275 164.869 10.4184 164.88 10.6105V16.9005V19.2505V19.6605C164.88 19.9205 164.88 20.1405 164.88 20.3205C164.93 20.7305 164.94 21.0905 165.39 21.1605L166.1 21.2205C166.153 21.2234 166.205 21.2395 166.25 21.2675C166.295 21.2954 166.333 21.3343 166.36 21.3805C166.44 21.6505 166.21 21.7505 165.97 21.7505H166.48Z" fill="#4D6AAF"></path> <path d="M21.6403 3.29982C18.0139 3.30377 14.47 4.38275 11.4566 6.40038C8.44325 8.41801 6.09568 11.2837 4.71064 14.6352C3.32559 17.9868 2.96525 21.6737 3.67516 25.23C4.38507 28.7863 6.13336 32.0523 8.69905 34.6152C11.2647 37.1781 14.5326 38.9228 18.0897 39.6289C21.6468 40.3349 25.3333 39.9705 28.6833 38.5818C32.0334 37.1931 34.8965 34.8425 36.9109 31.8269C38.9252 28.8113 40.0003 25.2663 40.0003 21.6398C40.0003 19.2297 39.5253 16.8432 38.6024 14.6168C37.6794 12.3904 36.3267 10.3677 34.6216 8.6644C32.9164 6.96111 30.8923 5.61061 28.6649 4.69012C26.4375 3.76963 24.0504 3.29719 21.6403 3.29982V3.29982ZM20.2703 9.13982H21.6603C24.1503 9.13982 25.1903 9.57982 26.3703 10.4898C27.0049 11.004 27.5146 11.6554 27.861 12.395C28.2074 13.1346 28.3816 13.9432 28.3703 14.7598C28.3893 16.0564 27.9341 17.3152 27.0903 18.2998C26.5878 18.9348 25.9619 19.4615 25.2504 19.8482C24.5389 20.2349 23.7565 20.4736 22.9503 20.5498C21.8526 20.6919 20.7425 20.712 19.6403 20.6098V19.3798C20.0219 19.4262 20.4059 19.4496 20.7903 19.4498C21.4365 19.4541 22.0749 19.3093 22.6559 19.0266C23.237 18.7439 23.7449 18.3309 24.1403 17.8198C24.7618 17.1012 25.1152 16.1895 25.1403 15.2398H20.8403V13.9998H25.1003C24.9773 13.2513 24.6364 12.5557 24.1203 11.9998C23.7182 11.5318 23.2148 11.1615 22.6482 10.9172C22.0815 10.6729 21.4667 10.5609 20.8503 10.5898H14.7103L14.0003 9.13982H20.2703ZM14.2703 33.6998L15.0303 32.2198V11.5898H18.3803V32.1998H20.7503V24.1498H23.8403V32.1498H26.5203V28.5298C26.5203 26.3098 26.4003 23.2198 23.9003 21.6198L25.3603 21.0898C28.3603 22.2098 29.8803 25.0898 29.8803 28.9798V32.2198L30.6403 33.6998H14.2703Z" fill="#4D6AAF"></path> </g> <defs> <clipPath id="clip0"> <rect width="366.46" height="43.28" fill="white"></rect> </clipPath> </defs> </svg> 